solid OpenSCAD_Model
  facet normal 0 0 -1
    outer loop
      vertex 160 250.214 0
      vertex 172 286.677 0
      vertex 172 253.214 0
    endloop
  endfacet
  facet normal -0 0 -1
    outer loop
      vertex 172 286.677 0
      vertex 160 250.214 0
      vertex 160 289.677 0
    endloop
  endfacet
  facet normal 0 0 -1
    outer loop
      vertex 160 200.25 0
      vertex 172 236.714 0
      vertex 172 203.25 0
    endloop
  endfacet
  facet normal -0 0 -1
    outer loop
      vertex 172 236.714 0
      vertex 160 200.25 0
      vertex 160 239.714 0
    endloop
  endfacet
  facet normal 0 0 -1
    outer loop
      vertex 160 160 0
      vertex 186.75 172 0
      vertex 189.75 160 0
    endloop
  endfacet
  facet normal -0 0 -1
    outer loop
      vertex 186.75 172 0
      vertex 160 160 0
      vertex 172 186.75 0
    endloop
  endfacet
  facet normal -0 0 -1
    outer loop
      vertex 172 186.75 0
      vertex 160 160 0
      vertex 160 189.75 0
    endloop
  endfacet
  facet normal 0 0 -1
    outer loop
      vertex 234.75 160 0
      vertex 203.25 172 0
      vertex 231.75 172 0
    endloop
  endfacet
  facet normal 0 -0 -1
    outer loop
      vertex 203.25 172 0
      vertex 234.75 160 0
      vertex 200.25 160 0
    endloop
  endfacet
  facet normal 0 0 -1
    outer loop
      vertex 279.75 160 0
      vertex 248.25 172 0
      vertex 276.75 172 0
    endloop
  endfacet
  facet normal 0 -0 -1
    outer loop
      vertex 248.25 172 0
      vertex 279.75 160 0
      vertex 245.25 160 0
    endloop
  endfacet
  facet normal 0 0 -1
    outer loop
      vertex 293.25 172 0
      vertex 320 190 0
      vertex 320 160 0
    endloop
  endfacet
  facet normal -0 0 -1
    outer loop
      vertex 320 190 0
      vertex 293.25 172 0
      vertex 320 200 0
    endloop
  endfacet
  facet normal 0 0 -1
    outer loop
      vertex 276.75 172 0
      vertex 320 200 0
      vertex 293.25 172 0
    endloop
  endfacet
  facet normal -0 0 -1
    outer loop
      vertex 320 200 0
      vertex 276.75 172 0
      vertex 320 239.964 0
    endloop
  endfacet
  facet normal 0 0 -1
    outer loop
      vertex 248.25 172 0
      vertex 320 239.964 0
      vertex 276.75 172 0
    endloop
  endfacet
  facet normal -0 0 -1
    outer loop
      vertex 320 239.964 0
      vertex 248.25 172 0
      vertex 320 249.964 0
    endloop
  endfacet
  facet normal 0 0 -1
    outer loop
      vertex 172 253.214 0
      vertex 320 249.964 0
      vertex 248.25 172 0
    endloop
  endfacet
  facet normal 0 -0 -1
    outer loop
      vertex 293.25 172 0
      vertex 320 160 0
      vertex 290.25 160 0
    endloop
  endfacet
  facet normal 0 0 -1
    outer loop
      vertex 320 190 0
      vertex 332 203 0
      vertex 332 187 0
    endloop
  endfacet
  facet normal 0 0 -1
    outer loop
      vertex 332 203 0
      vertex 320 190 0
      vertex 320 200 0
    endloop
  endfacet
  facet normal 0 0 -1
    outer loop
      vertex 320 239.964 0
      vertex 332 252.964 0
      vertex 332 236.964 0
    endloop
  endfacet
  facet normal 0 0 -1
    outer loop
      vertex 332 252.964 0
      vertex 320 239.964 0
      vertex 320 249.964 0
    endloop
  endfacet
  facet normal 0 0 -1
    outer loop
      vertex 320 289.927 0
      vertex 332 302.927 0
      vertex 332 286.927 0
    endloop
  endfacet
  facet normal 0 0 -1
    outer loop
      vertex 332 302.927 0
      vertex 320 289.927 0
      vertex 320 299.927 0
    endloop
  endfacet
  facet normal 0 0 -1
    outer loop
      vertex 320 249.964 0
      vertex 172 253.214 0
      vertex 320 289.927 0
    endloop
  endfacet
  facet normal 0 0 -1
    outer loop
      vertex 172 286.677 0
      vertex 320 289.927 0
      vertex 172 253.214 0
    endloop
  endfacet
  facet normal 0 0 -1
    outer loop
      vertex 172 236.714 0
      vertex 248.25 172 0
      vertex 231.75 172 0
    endloop
  endfacet
  facet normal 0 0 -1
    outer loop
      vertex 172 203.25 0
      vertex 231.75 172 0
      vertex 203.25 172 0
    endloop
  endfacet
  facet normal 0 0 -1
    outer loop
      vertex 172 203.25 0
      vertex 203.25 172 0
      vertex 186.75 172 0
    endloop
  endfacet
  facet normal 0 0 -1
    outer loop
      vertex 172 203.25 0
      vertex 186.75 172 0
      vertex 172 186.75 0
    endloop
  endfacet
  facet normal 0 0 -1
    outer loop
      vertex 231.75 172 0
      vertex 172 203.25 0
      vertex 172 236.714 0
    endloop
  endfacet
  facet normal 0 0 -1
    outer loop
      vertex 248.25 172 0
      vertex 172 236.714 0
      vertex 172 253.214 0
    endloop
  endfacet
  facet normal -0 0 -1
    outer loop
      vertex 320 289.927 0
      vertex 172 286.677 0
      vertex 320 299.927 0
    endloop
  endfacet
  facet normal 0 0 -1
    outer loop
      vertex 172 303.177 0
      vertex 320 299.927 0
      vertex 172 286.677 0
    endloop
  endfacet
  facet normal 0 0 -1
    outer loop
      vertex 320 299.927 0
      vertex 172 303.177 0
      vertex 320 329.927 0
    endloop
  endfacet
  facet normal 0 0 -1
    outer loop
      vertex 172 303.177 0
      vertex 160 329.927 0
      vertex 320 329.927 0
    endloop
  endfacet
  facet normal 0 0 -1
    outer loop
      vertex 160 329.927 0
      vertex 172 303.177 0
      vertex 160 300.177 0
    endloop
  endfacet
  facet normal 0 0 1
    outer loop
      vertex 160 239.714 1.88
      vertex 172 203.25 1.88
      vertex 172 236.714 1.88
    endloop
  endfacet
  facet normal 0 0 1
    outer loop
      vertex 172 203.25 1.88
      vertex 160 239.714 1.88
      vertex 160 200.25 1.88
    endloop
  endfacet
  facet normal 0 0 1
    outer loop
      vertex 160 289.677 1.88
      vertex 172 253.214 1.88
      vertex 172 286.677 1.88
    endloop
  endfacet
  facet normal 0 0 1
    outer loop
      vertex 172 253.214 1.88
      vertex 160 289.677 1.88
      vertex 160 250.214 1.88
    endloop
  endfacet
  facet normal -0 0 1
    outer loop
      vertex 172 303.177 1.88
      vertex 320 299.927 1.88
      vertex 320 329.927 1.88
    endloop
  endfacet
  facet normal 0 0 1
    outer loop
      vertex 320 299.927 1.88
      vertex 172 303.177 1.88
      vertex 320 289.927 1.88
    endloop
  endfacet
  facet normal 0 0 1
    outer loop
      vertex 320 289.927 1.88
      vertex 172 286.677 1.88
      vertex 320 249.964 1.88
    endloop
  endfacet
  facet normal -0 0 1
    outer loop
      vertex 172 253.214 1.88
      vertex 320 249.964 1.88
      vertex 172 286.677 1.88
    endloop
  endfacet
  facet normal 0 0 1
    outer loop
      vertex 320 249.964 1.88
      vertex 248.25 172 1.88
      vertex 320 239.964 1.88
    endloop
  endfacet
  facet normal 0 -0 1
    outer loop
      vertex 293.25 172 1.88
      vertex 320 200 1.88
      vertex 276.75 172 1.88
    endloop
  endfacet
  facet normal 0 0 1
    outer loop
      vertex 320 190 1.88
      vertex 293.25 172 1.88
      vertex 320 160 1.88
    endloop
  endfacet
  facet normal 0 0 1
    outer loop
      vertex 320 200 1.88
      vertex 293.25 172 1.88
      vertex 320 190 1.88
    endloop
  endfacet
  facet normal 0 0 1
    outer loop
      vertex 320 239.964 1.88
      vertex 276.75 172 1.88
      vertex 320 200 1.88
    endloop
  endfacet
  facet normal 0 -0 1
    outer loop
      vertex 276.75 172 1.88
      vertex 320 239.964 1.88
      vertex 248.25 172 1.88
    endloop
  endfacet
  facet normal -0 0 1
    outer loop
      vertex 172 236.714 1.88
      vertex 248.25 172 1.88
      vertex 172 253.214 1.88
    endloop
  endfacet
  facet normal -0 0 1
    outer loop
      vertex 172 203.25 1.88
      vertex 231.75 172 1.88
      vertex 172 236.714 1.88
    endloop
  endfacet
  facet normal 0 0 1
    outer loop
      vertex 320 289.927 1.88
      vertex 172 303.177 1.88
      vertex 172 286.677 1.88
    endloop
  endfacet
  facet normal -0 0 1
    outer loop
      vertex 160 329.927 1.88
      vertex 172 303.177 1.88
      vertex 320 329.927 1.88
    endloop
  endfacet
  facet normal 0 0 1
    outer loop
      vertex 172 303.177 1.88
      vertex 160 329.927 1.88
      vertex 160 300.177 1.88
    endloop
  endfacet
  facet normal -0 0 1
    outer loop
      vertex 320 299.927 1.88
      vertex 332 286.927 1.88
      vertex 332 302.927 1.88
    endloop
  endfacet
  facet normal 0 0 1
    outer loop
      vertex 332 286.927 1.88
      vertex 320 299.927 1.88
      vertex 320 289.927 1.88
    endloop
  endfacet
  facet normal -0 0 1
    outer loop
      vertex 320 249.964 1.88
      vertex 332 236.964 1.88
      vertex 332 252.964 1.88
    endloop
  endfacet
  facet normal 0 0 1
    outer loop
      vertex 332 236.964 1.88
      vertex 320 249.964 1.88
      vertex 320 239.964 1.88
    endloop
  endfacet
  facet normal -0 0 1
    outer loop
      vertex 320 200 1.88
      vertex 332 187 1.88
      vertex 332 203 1.88
    endloop
  endfacet
  facet normal 0 0 1
    outer loop
      vertex 332 187 1.88
      vertex 320 200 1.88
      vertex 320 190 1.88
    endloop
  endfacet
  facet normal 0 0 1
    outer loop
      vertex 320 160 1.88
      vertex 293.25 172 1.88
      vertex 290.25 160 1.88
    endloop
  endfacet
  facet normal -0 0 1
    outer loop
      vertex 248.25 172 1.88
      vertex 279.75 160 1.88
      vertex 276.75 172 1.88
    endloop
  endfacet
  facet normal 0 0 1
    outer loop
      vertex 279.75 160 1.88
      vertex 248.25 172 1.88
      vertex 245.25 160 1.88
    endloop
  endfacet
  facet normal -0 0 1
    outer loop
      vertex 203.25 172 1.88
      vertex 234.75 160 1.88
      vertex 231.75 172 1.88
    endloop
  endfacet
  facet normal 0 0 1
    outer loop
      vertex 234.75 160 1.88
      vertex 203.25 172 1.88
      vertex 200.25 160 1.88
    endloop
  endfacet
  facet normal 0 -0 1
    outer loop
      vertex 248.25 172 1.88
      vertex 320 249.964 1.88
      vertex 172 253.214 1.88
    endloop
  endfacet
  facet normal 0 0 1
    outer loop
      vertex 248.25 172 1.88
      vertex 172 236.714 1.88
      vertex 231.75 172 1.88
    endloop
  endfacet
  facet normal 0 0 1
    outer loop
      vertex 231.75 172 1.88
      vertex 172 203.25 1.88
      vertex 203.25 172 1.88
    endloop
  endfacet
  facet normal 0 0 1
    outer loop
      vertex 203.25 172 1.88
      vertex 172 203.25 1.88
      vertex 186.75 172 1.88
    endloop
  endfacet
  facet normal -0 0 1
    outer loop
      vertex 172 186.75 1.88
      vertex 186.75 172 1.88
      vertex 172 203.25 1.88
    endloop
  endfacet
  facet normal 0 0 1
    outer loop
      vertex 160 160 1.88
      vertex 186.75 172 1.88
      vertex 172 186.75 1.88
    endloop
  endfacet
  facet normal 0 0 1
    outer loop
      vertex 160 160 1.88
      vertex 172 186.75 1.88
      vertex 160 189.75 1.88
    endloop
  endfacet
  facet normal 0 0 1
    outer loop
      vertex 186.75 172 1.88
      vertex 160 160 1.88
      vertex 189.75 160 1.88
    endloop
  endfacet
  facet normal 0 1 -0
    outer loop
      vertex 320 329.927 0
      vertex 160 329.927 1.88
      vertex 320 329.927 1.88
    endloop
  endfacet
  facet normal 0 1 0
    outer loop
      vertex 160 329.927 1.88
      vertex 320 329.927 0
      vertex 160 329.927 0
    endloop
  endfacet
  facet normal 1 -0 0
    outer loop
      vertex 320 299.927 1.88
      vertex 320 329.927 0
      vertex 320 329.927 1.88
    endloop
  endfacet
  facet normal 1 0 0
    outer loop
      vertex 320 329.927 0
      vertex 320 299.927 1.88
      vertex 320 299.927 0
    endloop
  endfacet
  facet normal 1 -0 0
    outer loop
      vertex 320 160 1.88
      vertex 320 190 0
      vertex 320 190 1.88
    endloop
  endfacet
  facet normal 1 0 0
    outer loop
      vertex 320 190 0
      vertex 320 160 1.88
      vertex 320 160 0
    endloop
  endfacet
  facet normal 1 -0 0
    outer loop
      vertex 320 249.964 1.88
      vertex 320 289.927 0
      vertex 320 289.927 1.88
    endloop
  endfacet
  facet normal 1 0 0
    outer loop
      vertex 320 289.927 0
      vertex 320 249.964 1.88
      vertex 320 249.964 0
    endloop
  endfacet
  facet normal 1 -0 0
    outer loop
      vertex 320 200 1.88
      vertex 320 239.964 0
      vertex 320 239.964 1.88
    endloop
  endfacet
  facet normal 1 0 0
    outer loop
      vertex 320 239.964 0
      vertex 320 200 1.88
      vertex 320 200 0
    endloop
  endfacet
  facet normal -1 0 0
    outer loop
      vertex 160 300.177 0
      vertex 160 329.927 1.88
      vertex 160 329.927 0
    endloop
  endfacet
  facet normal -1 -0 0
    outer loop
      vertex 160 329.927 1.88
      vertex 160 300.177 0
      vertex 160 300.177 1.88
    endloop
  endfacet
  facet normal -1 0 0
    outer loop
      vertex 160 160 0
      vertex 160 189.75 1.88
      vertex 160 189.75 0
    endloop
  endfacet
  facet normal -1 -0 0
    outer loop
      vertex 160 189.75 1.88
      vertex 160 160 0
      vertex 160 160 1.88
    endloop
  endfacet
  facet normal -1 0 0
    outer loop
      vertex 160 250.214 0
      vertex 160 289.677 1.88
      vertex 160 289.677 0
    endloop
  endfacet
  facet normal -1 -0 0
    outer loop
      vertex 160 289.677 1.88
      vertex 160 250.214 0
      vertex 160 250.214 1.88
    endloop
  endfacet
  facet normal -1 0 0
    outer loop
      vertex 160 200.25 0
      vertex 160 239.714 1.88
      vertex 160 239.714 0
    endloop
  endfacet
  facet normal -1 -0 0
    outer loop
      vertex 160 239.714 1.88
      vertex 160 200.25 0
      vertex 160 200.25 1.88
    endloop
  endfacet
  facet normal 0 -1 0
    outer loop
      vertex 160 160 0
      vertex 189.75 160 1.88
      vertex 160 160 1.88
    endloop
  endfacet
  facet normal 0 -1 -0
    outer loop
      vertex 189.75 160 1.88
      vertex 160 160 0
      vertex 189.75 160 0
    endloop
  endfacet
  facet normal 0 -1 0
    outer loop
      vertex 290.25 160 0
      vertex 320 160 1.88
      vertex 290.25 160 1.88
    endloop
  endfacet
  facet normal 0 -1 -0
    outer loop
      vertex 320 160 1.88
      vertex 290.25 160 0
      vertex 320 160 0
    endloop
  endfacet
  facet normal 0 -1 0
    outer loop
      vertex 200.25 160 0
      vertex 234.75 160 1.88
      vertex 200.25 160 1.88
    endloop
  endfacet
  facet normal 0 -1 -0
    outer loop
      vertex 234.75 160 1.88
      vertex 200.25 160 0
      vertex 234.75 160 0
    endloop
  endfacet
  facet normal 0 -1 0
    outer loop
      vertex 245.25 160 0
      vertex 279.75 160 1.88
      vertex 245.25 160 1.88
    endloop
  endfacet
  facet normal 0 -1 -0
    outer loop
      vertex 279.75 160 1.88
      vertex 245.25 160 0
      vertex 279.75 160 0
    endloop
  endfacet
  facet normal 1 -0 0
    outer loop
      vertex 332 187 1.88
      vertex 332 203 0
      vertex 332 203 1.88
    endloop
  endfacet
  facet normal 1 0 0
    outer loop
      vertex 332 203 0
      vertex 332 187 1.88
      vertex 332 187 0
    endloop
  endfacet
  facet normal -0.242536 -0.970143 0
    outer loop
      vertex 320 190 0
      vertex 332 187 1.88
      vertex 320 190 1.88
    endloop
  endfacet
  facet normal -0.242536 -0.970143 -0
    outer loop
      vertex 332 187 1.88
      vertex 320 190 0
      vertex 332 187 0
    endloop
  endfacet
  facet normal -0.242536 0.970143 0
    outer loop
      vertex 332 203 0
      vertex 320 200 1.88
      vertex 332 203 1.88
    endloop
  endfacet
  facet normal -0.242536 0.970143 0
    outer loop
      vertex 320 200 1.88
      vertex 332 203 0
      vertex 320 200 0
    endloop
  endfacet
  facet normal 1 -0 0
    outer loop
      vertex 332 236.964 1.88
      vertex 332 252.964 0
      vertex 332 252.964 1.88
    endloop
  endfacet
  facet normal 1 0 0
    outer loop
      vertex 332 252.964 0
      vertex 332 236.964 1.88
      vertex 332 236.964 0
    endloop
  endfacet
  facet normal -0.242536 -0.970143 0
    outer loop
      vertex 320 239.964 0
      vertex 332 236.964 1.88
      vertex 320 239.964 1.88
    endloop
  endfacet
  facet normal -0.242536 -0.970143 -0
    outer loop
      vertex 332 236.964 1.88
      vertex 320 239.964 0
      vertex 332 236.964 0
    endloop
  endfacet
  facet normal -0.242536 0.970143 0
    outer loop
      vertex 332 252.964 0
      vertex 320 249.964 1.88
      vertex 332 252.964 1.88
    endloop
  endfacet
  facet normal -0.242536 0.970143 0
    outer loop
      vertex 320 249.964 1.88
      vertex 332 252.964 0
      vertex 320 249.964 0
    endloop
  endfacet
  facet normal 1 -0 0
    outer loop
      vertex 332 286.927 1.88
      vertex 332 302.927 0
      vertex 332 302.927 1.88
    endloop
  endfacet
  facet normal 1 0 0
    outer loop
      vertex 332 302.927 0
      vertex 332 286.927 1.88
      vertex 332 286.927 0
    endloop
  endfacet
  facet normal -0.242536 -0.970143 0
    outer loop
      vertex 320 289.927 0
      vertex 332 286.927 1.88
      vertex 320 289.927 1.88
    endloop
  endfacet
  facet normal -0.242536 -0.970143 -0
    outer loop
      vertex 332 286.927 1.88
      vertex 320 289.927 0
      vertex 332 286.927 0
    endloop
  endfacet
  facet normal -0.242536 0.970143 0
    outer loop
      vertex 332 302.927 0
      vertex 320 299.927 1.88
      vertex 332 302.927 1.88
    endloop
  endfacet
  facet normal -0.242536 0.970143 0
    outer loop
      vertex 320 299.927 1.88
      vertex 332 302.927 0
      vertex 320 299.927 0
    endloop
  endfacet
  facet normal -1 0 0
    outer loop
      vertex 172 186.75 0
      vertex 172 203.25 1.88
      vertex 172 203.25 0
    endloop
  endfacet
  facet normal -1 -0 0
    outer loop
      vertex 172 203.25 1.88
      vertex 172 186.75 0
      vertex 172 186.75 1.88
    endloop
  endfacet
  facet normal 0.242536 0.970143 -0
    outer loop
      vertex 172 186.75 0
      vertex 160 189.75 1.88
      vertex 172 186.75 1.88
    endloop
  endfacet
  facet normal 0.242536 0.970143 0
    outer loop
      vertex 160 189.75 1.88
      vertex 172 186.75 0
      vertex 160 189.75 0
    endloop
  endfacet
  facet normal 0.242536 -0.970143 0
    outer loop
      vertex 160 200.25 0
      vertex 172 203.25 1.88
      vertex 160 200.25 1.88
    endloop
  endfacet
  facet normal 0.242536 -0.970143 0
    outer loop
      vertex 172 203.25 1.88
      vertex 160 200.25 0
      vertex 172 203.25 0
    endloop
  endfacet
  facet normal -1 0 0
    outer loop
      vertex 172 236.714 0
      vertex 172 253.214 1.88
      vertex 172 253.214 0
    endloop
  endfacet
  facet normal -1 -0 0
    outer loop
      vertex 172 253.214 1.88
      vertex 172 236.714 0
      vertex 172 236.714 1.88
    endloop
  endfacet
  facet normal 0.242536 0.970143 -0
    outer loop
      vertex 172 236.714 0
      vertex 160 239.714 1.88
      vertex 172 236.714 1.88
    endloop
  endfacet
  facet normal 0.242536 0.970143 0
    outer loop
      vertex 160 239.714 1.88
      vertex 172 236.714 0
      vertex 160 239.714 0
    endloop
  endfacet
  facet normal 0.242536 -0.970143 0
    outer loop
      vertex 160 250.214 0
      vertex 172 253.214 1.88
      vertex 160 250.214 1.88
    endloop
  endfacet
  facet normal 0.242536 -0.970143 0
    outer loop
      vertex 172 253.214 1.88
      vertex 160 250.214 0
      vertex 172 253.214 0
    endloop
  endfacet
  facet normal -1 0 0
    outer loop
      vertex 172 286.677 0
      vertex 172 303.177 1.88
      vertex 172 303.177 0
    endloop
  endfacet
  facet normal -1 -0 0
    outer loop
      vertex 172 303.177 1.88
      vertex 172 286.677 0
      vertex 172 286.677 1.88
    endloop
  endfacet
  facet normal 0.242536 0.970143 -0
    outer loop
      vertex 172 286.677 0
      vertex 160 289.677 1.88
      vertex 172 286.677 1.88
    endloop
  endfacet
  facet normal 0.242536 0.970143 0
    outer loop
      vertex 160 289.677 1.88
      vertex 172 286.677 0
      vertex 160 289.677 0
    endloop
  endfacet
  facet normal 0.242536 -0.970143 0
    outer loop
      vertex 160 300.177 0
      vertex 172 303.177 1.88
      vertex 160 300.177 1.88
    endloop
  endfacet
  facet normal 0.242536 -0.970143 0
    outer loop
      vertex 172 303.177 1.88
      vertex 160 300.177 0
      vertex 172 303.177 0
    endloop
  endfacet
  facet normal -0.970143 0.242536 0
    outer loop
      vertex 200.25 160 0
      vertex 203.25 172 1.88
      vertex 203.25 172 0
    endloop
  endfacet
  facet normal -0.970143 0.242536 0
    outer loop
      vertex 203.25 172 1.88
      vertex 200.25 160 0
      vertex 200.25 160 1.88
    endloop
  endfacet
  facet normal 0 -1 0
    outer loop
      vertex 186.75 172 0
      vertex 203.25 172 1.88
      vertex 186.75 172 1.88
    endloop
  endfacet
  facet normal 0 -1 -0
    outer loop
      vertex 203.25 172 1.88
      vertex 186.75 172 0
      vertex 203.25 172 0
    endloop
  endfacet
  facet normal 0.970143 0.242536 0
    outer loop
      vertex 189.75 160 1.88
      vertex 186.75 172 0
      vertex 186.75 172 1.88
    endloop
  endfacet
  facet normal 0.970143 0.242536 0
    outer loop
      vertex 186.75 172 0
      vertex 189.75 160 1.88
      vertex 189.75 160 0
    endloop
  endfacet
  facet normal -0.970143 0.242536 0
    outer loop
      vertex 245.25 160 0
      vertex 248.25 172 1.88
      vertex 248.25 172 0
    endloop
  endfacet
  facet normal -0.970143 0.242536 0
    outer loop
      vertex 248.25 172 1.88
      vertex 245.25 160 0
      vertex 245.25 160 1.88
    endloop
  endfacet
  facet normal 0.970143 0.242536 0
    outer loop
      vertex 234.75 160 1.88
      vertex 231.75 172 0
      vertex 231.75 172 1.88
    endloop
  endfacet
  facet normal 0.970143 0.242536 0
    outer loop
      vertex 231.75 172 0
      vertex 234.75 160 1.88
      vertex 234.75 160 0
    endloop
  endfacet
  facet normal 0 -1 0
    outer loop
      vertex 231.75 172 0
      vertex 248.25 172 1.88
      vertex 231.75 172 1.88
    endloop
  endfacet
  facet normal 0 -1 -0
    outer loop
      vertex 248.25 172 1.88
      vertex 231.75 172 0
      vertex 248.25 172 0
    endloop
  endfacet
  facet normal -0.970143 0.242536 0
    outer loop
      vertex 290.25 160 0
      vertex 293.25 172 1.88
      vertex 293.25 172 0
    endloop
  endfacet
  facet normal -0.970143 0.242536 0
    outer loop
      vertex 293.25 172 1.88
      vertex 290.25 160 0
      vertex 290.25 160 1.88
    endloop
  endfacet
  facet normal 0 -1 0
    outer loop
      vertex 276.75 172 0
      vertex 293.25 172 1.88
      vertex 276.75 172 1.88
    endloop
  endfacet
  facet normal 0 -1 -0
    outer loop
      vertex 293.25 172 1.88
      vertex 276.75 172 0
      vertex 293.25 172 0
    endloop
  endfacet
  facet normal 0.970143 0.242536 0
    outer loop
      vertex 279.75 160 1.88
      vertex 276.75 172 0
      vertex 276.75 172 1.88
    endloop
  endfacet
  facet normal 0.970143 0.242536 0
    outer loop
      vertex 276.75 172 0
      vertex 279.75 160 1.88
      vertex 279.75 160 0
    endloop
  endfacet
endsolid OpenSCAD_Model
