solid OpenSCAD_Model
  facet normal 0 0 -1
    outer loop
      vertex 320 75.25 0
      vertex 332 116.75 0
      vertex 332 78.25 0
    endloop
  endfacet
  facet normal -0 0 -1
    outer loop
      vertex 332 116.75 0
      vertex 320 75.25 0
      vertex 320 119.75 0
    endloop
  endfacet
  facet normal 0 0 -1
    outer loop
      vertex 320 20.25 0
      vertex 332 61.75 0
      vertex 332 23.25 0
    endloop
  endfacet
  facet normal -0 0 -1
    outer loop
      vertex 332 61.75 0
      vertex 320 20.25 0
      vertex 320 64.75 0
    endloop
  endfacet
  facet normal 0 0 -1
    outer loop
      vertex 332 6.75 0
      vertex 480 10 0
      vertex 480 -19.6582 0
    endloop
  endfacet
  facet normal -0 0 -1
    outer loop
      vertex 480 10 0
      vertex 332 6.75 0
      vertex 480 20 0
    endloop
  endfacet
  facet normal 0 0 -1
    outer loop
      vertex 480 20 0
      vertex 332 23.25 0
      vertex 480 65 0
    endloop
  endfacet
  facet normal 0 0 -1
    outer loop
      vertex 332 61.75 0
      vertex 480 65 0
      vertex 332 23.25 0
    endloop
  endfacet
  facet normal 0 0 -1
    outer loop
      vertex 332 78.25 0
      vertex 480 75 0
      vertex 332 61.75 0
    endloop
  endfacet
  facet normal 0 -0 -1
    outer loop
      vertex 405 160 0
      vertex 480 75 0
      vertex 332 78.25 0
    endloop
  endfacet
  facet normal 0 0 -1
    outer loop
      vertex 480 130 0
      vertex 450 160 0
      vertex 480 160 0
    endloop
  endfacet
  facet normal 0 0 -1
    outer loop
      vertex 480 130 0
      vertex 440 160 0
      vertex 450 160 0
    endloop
  endfacet
  facet normal 0 0 -1
    outer loop
      vertex 480 75 0
      vertex 405 160 0
      vertex 480 120 0
    endloop
  endfacet
  facet normal 0 0 -1
    outer loop
      vertex 480 120 0
      vertex 440 160 0
      vertex 480 130 0
    endloop
  endfacet
  facet normal -0 -0 -1
    outer loop
      vertex 440 160 0
      vertex 480 120 0
      vertex 405 160 0
    endloop
  endfacet
  facet normal 0 0 -1
    outer loop
      vertex 332 116.75 0
      vertex 395 160 0
      vertex 332 78.25 0
    endloop
  endfacet
  facet normal -0 0 -1
    outer loop
      vertex 480 20 0
      vertex 332 6.75 0
      vertex 332 23.25 0
    endloop
  endfacet
  facet normal 0 0 -1
    outer loop
      vertex 320 -19.3405 0
      vertex 332 6.75 0
      vertex 480 -19.6582 0
    endloop
  endfacet
  facet normal -0 0 -1
    outer loop
      vertex 332 6.75 0
      vertex 320 -19.3405 0
      vertex 320 9.75 0
    endloop
  endfacet
  facet normal 0 0 -1
    outer loop
      vertex 480 10 0
      vertex 492 23 0
      vertex 492 7 0
    endloop
  endfacet
  facet normal 0 0 -1
    outer loop
      vertex 492 23 0
      vertex 480 10 0
      vertex 480 20 0
    endloop
  endfacet
  facet normal 0 0 -1
    outer loop
      vertex 480 65 0
      vertex 492 78 0
      vertex 492 62 0
    endloop
  endfacet
  facet normal 0 0 -1
    outer loop
      vertex 492 78 0
      vertex 480 65 0
      vertex 480 75 0
    endloop
  endfacet
  facet normal 0 0 -1
    outer loop
      vertex 480 120 0
      vertex 492 133 0
      vertex 492 117 0
    endloop
  endfacet
  facet normal 0 0 -1
    outer loop
      vertex 492 133 0
      vertex 480 120 0
      vertex 480 130 0
    endloop
  endfacet
  facet normal 0 0 -1
    outer loop
      vertex 440 160 0
      vertex 453 172 0
      vertex 450 160 0
    endloop
  endfacet
  facet normal -0 0 -1
    outer loop
      vertex 453 172 0
      vertex 440 160 0
      vertex 437 172 0
    endloop
  endfacet
  facet normal 0 0 -1
    outer loop
      vertex 395 160 0
      vertex 408 172 0
      vertex 405 160 0
    endloop
  endfacet
  facet normal -0 0 -1
    outer loop
      vertex 408 172 0
      vertex 395 160 0
      vertex 392 172 0
    endloop
  endfacet
  facet normal 0 0 -1
    outer loop
      vertex 350 160 0
      vertex 363 172 0
      vertex 360 160 0
    endloop
  endfacet
  facet normal -0 0 -1
    outer loop
      vertex 363 172 0
      vertex 350 160 0
      vertex 347 172 0
    endloop
  endfacet
  facet normal -0 0 -1
    outer loop
      vertex 480 65 0
      vertex 332 61.75 0
      vertex 480 75 0
    endloop
  endfacet
  facet normal -0 0 -1
    outer loop
      vertex 405 160 0
      vertex 332 78.25 0
      vertex 395 160 0
    endloop
  endfacet
  facet normal -0 0 -1
    outer loop
      vertex 395 160 0
      vertex 332 116.75 0
      vertex 360 160 0
    endloop
  endfacet
  facet normal 0 0 -1
    outer loop
      vertex 332 133.25 0
      vertex 360 160 0
      vertex 332 116.75 0
    endloop
  endfacet
  facet normal -0 0 -1
    outer loop
      vertex 360 160 0
      vertex 332 133.25 0
      vertex 350 160 0
    endloop
  endfacet
  facet normal 0 0 -1
    outer loop
      vertex 320 160 0
      vertex 332 133.25 0
      vertex 320 130.25 0
    endloop
  endfacet
  facet normal 0 0 -1
    outer loop
      vertex 332 133.25 0
      vertex 320 160 0
      vertex 350 160 0
    endloop
  endfacet
  facet normal -0.00198562 -0.999998 0
    outer loop
      vertex 320 -19.3405 0
      vertex 480 -19.6582 1.88
      vertex 320 -19.3405 1.88
    endloop
  endfacet
  facet normal -0.00198562 -0.999998 -0
    outer loop
      vertex 480 -19.6582 1.88
      vertex 320 -19.3405 0
      vertex 480 -19.6582 0
    endloop
  endfacet
  facet normal 0 0 1
    outer loop
      vertex 320 64.75 1.88
      vertex 332 23.25 1.88
      vertex 332 61.75 1.88
    endloop
  endfacet
  facet normal 0 0 1
    outer loop
      vertex 332 23.25 1.88
      vertex 320 64.75 1.88
      vertex 320 20.25 1.88
    endloop
  endfacet
  facet normal 0 0 1
    outer loop
      vertex 320 119.75 1.88
      vertex 332 78.25 1.88
      vertex 332 116.75 1.88
    endloop
  endfacet
  facet normal 0 0 1
    outer loop
      vertex 332 78.25 1.88
      vertex 320 119.75 1.88
      vertex 320 75.25 1.88
    endloop
  endfacet
  facet normal -0 0 1
    outer loop
      vertex 320 160 1.88
      vertex 332 133.25 1.88
      vertex 350 160 1.88
    endloop
  endfacet
  facet normal 0 0 1
    outer loop
      vertex 332 133.25 1.88
      vertex 320 160 1.88
      vertex 320 130.25 1.88
    endloop
  endfacet
  facet normal 0 0 1
    outer loop
      vertex 363 172 1.88
      vertex 350 160 1.88
      vertex 360 160 1.88
    endloop
  endfacet
  facet normal 0 -0 1
    outer loop
      vertex 350 160 1.88
      vertex 363 172 1.88
      vertex 347 172 1.88
    endloop
  endfacet
  facet normal 0 0 1
    outer loop
      vertex 408 172 1.88
      vertex 395 160 1.88
      vertex 405 160 1.88
    endloop
  endfacet
  facet normal 0 -0 1
    outer loop
      vertex 395 160 1.88
      vertex 408 172 1.88
      vertex 392 172 1.88
    endloop
  endfacet
  facet normal 0 0 1
    outer loop
      vertex 453 172 1.88
      vertex 440 160 1.88
      vertex 450 160 1.88
    endloop
  endfacet
  facet normal 0 -0 1
    outer loop
      vertex 440 160 1.88
      vertex 453 172 1.88
      vertex 437 172 1.88
    endloop
  endfacet
  facet normal -0 0 1
    outer loop
      vertex 450 160 1.88
      vertex 480 130 1.88
      vertex 480 160 1.88
    endloop
  endfacet
  facet normal 0 0 1
    outer loop
      vertex 480 130 1.88
      vertex 450 160 1.88
      vertex 480 120 1.88
    endloop
  endfacet
  facet normal -0 0 1
    outer loop
      vertex 440 160 1.88
      vertex 480 120 1.88
      vertex 450 160 1.88
    endloop
  endfacet
  facet normal -0 0 1
    outer loop
      vertex 405 160 1.88
      vertex 480 120 1.88
      vertex 440 160 1.88
    endloop
  endfacet
  facet normal 0 0 1
    outer loop
      vertex 480 120 1.88
      vertex 405 160 1.88
      vertex 480 75 1.88
    endloop
  endfacet
  facet normal -0 0 1
    outer loop
      vertex 332 78.25 1.88
      vertex 480 75 1.88
      vertex 405 160 1.88
    endloop
  endfacet
  facet normal 0 0 1
    outer loop
      vertex 480 75 1.88
      vertex 332 78.25 1.88
      vertex 480 65 1.88
    endloop
  endfacet
  facet normal 0 0 1
    outer loop
      vertex 332 61.75 1.88
      vertex 480 65 1.88
      vertex 332 78.25 1.88
    endloop
  endfacet
  facet normal 0 0 1
    outer loop
      vertex 480 65 1.88
      vertex 332 61.75 1.88
      vertex 480 20 1.88
    endloop
  endfacet
  facet normal 0 0 1
    outer loop
      vertex 332 78.25 1.88
      vertex 405 160 1.88
      vertex 395 160 1.88
    endloop
  endfacet
  facet normal 0 0 1
    outer loop
      vertex 332 116.75 1.88
      vertex 395 160 1.88
      vertex 360 160 1.88
    endloop
  endfacet
  facet normal 0 0 1
    outer loop
      vertex 332 133.25 1.88
      vertex 360 160 1.88
      vertex 350 160 1.88
    endloop
  endfacet
  facet normal 0 0 1
    outer loop
      vertex 360 160 1.88
      vertex 332 133.25 1.88
      vertex 332 116.75 1.88
    endloop
  endfacet
  facet normal 0 0 1
    outer loop
      vertex 395 160 1.88
      vertex 332 116.75 1.88
      vertex 332 78.25 1.88
    endloop
  endfacet
  facet normal -0 0 1
    outer loop
      vertex 332 23.25 1.88
      vertex 480 20 1.88
      vertex 332 61.75 1.88
    endloop
  endfacet
  facet normal 0 0 1
    outer loop
      vertex 480 20 1.88
      vertex 332 23.25 1.88
      vertex 480 10 1.88
    endloop
  endfacet
  facet normal 0 0 1
    outer loop
      vertex 332 6.75 1.88
      vertex 480 10 1.88
      vertex 332 23.25 1.88
    endloop
  endfacet
  facet normal 0 0 1
    outer loop
      vertex 480 10 1.88
      vertex 332 6.75 1.88
      vertex 480 -19.6582 1.88
    endloop
  endfacet
  facet normal 0 0 1
    outer loop
      vertex 332 6.75 1.88
      vertex 320 -19.3405 1.88
      vertex 480 -19.6582 1.88
    endloop
  endfacet
  facet normal 0 0 1
    outer loop
      vertex 320 -19.3405 1.88
      vertex 332 6.75 1.88
      vertex 320 9.75 1.88
    endloop
  endfacet
  facet normal -0 0 1
    outer loop
      vertex 480 130 1.88
      vertex 492 117 1.88
      vertex 492 133 1.88
    endloop
  endfacet
  facet normal 0 0 1
    outer loop
      vertex 492 117 1.88
      vertex 480 130 1.88
      vertex 480 120 1.88
    endloop
  endfacet
  facet normal -0 0 1
    outer loop
      vertex 480 75 1.88
      vertex 492 62 1.88
      vertex 492 78 1.88
    endloop
  endfacet
  facet normal 0 0 1
    outer loop
      vertex 492 62 1.88
      vertex 480 75 1.88
      vertex 480 65 1.88
    endloop
  endfacet
  facet normal -0 0 1
    outer loop
      vertex 480 20 1.88
      vertex 492 7 1.88
      vertex 492 23 1.88
    endloop
  endfacet
  facet normal 0 0 1
    outer loop
      vertex 492 7 1.88
      vertex 480 20 1.88
      vertex 480 10 1.88
    endloop
  endfacet
  facet normal 1 -0 0
    outer loop
      vertex 480 -19.6582 1.88
      vertex 480 10 0
      vertex 480 10 1.88
    endloop
  endfacet
  facet normal 1 0 0
    outer loop
      vertex 480 10 0
      vertex 480 -19.6582 1.88
      vertex 480 -19.6582 0
    endloop
  endfacet
  facet normal 1 -0 0
    outer loop
      vertex 480 130 1.88
      vertex 480 160 0
      vertex 480 160 1.88
    endloop
  endfacet
  facet normal 1 0 0
    outer loop
      vertex 480 160 0
      vertex 480 130 1.88
      vertex 480 130 0
    endloop
  endfacet
  facet normal 1 -0 0
    outer loop
      vertex 480 75 1.88
      vertex 480 120 0
      vertex 480 120 1.88
    endloop
  endfacet
  facet normal 1 0 0
    outer loop
      vertex 480 120 0
      vertex 480 75 1.88
      vertex 480 75 0
    endloop
  endfacet
  facet normal 1 -0 0
    outer loop
      vertex 480 20 1.88
      vertex 480 65 0
      vertex 480 65 1.88
    endloop
  endfacet
  facet normal 1 0 0
    outer loop
      vertex 480 65 0
      vertex 480 20 1.88
      vertex 480 20 0
    endloop
  endfacet
  facet normal -1 0 0
    outer loop
      vertex 320 -19.3405 0
      vertex 320 9.75 1.88
      vertex 320 9.75 0
    endloop
  endfacet
  facet normal -1 -0 0
    outer loop
      vertex 320 9.75 1.88
      vertex 320 -19.3405 0
      vertex 320 -19.3405 1.88
    endloop
  endfacet
  facet normal -1 0 0
    outer loop
      vertex 320 130.25 0
      vertex 320 160 1.88
      vertex 320 160 0
    endloop
  endfacet
  facet normal -1 -0 0
    outer loop
      vertex 320 160 1.88
      vertex 320 130.25 0
      vertex 320 130.25 1.88
    endloop
  endfacet
  facet normal -1 0 0
    outer loop
      vertex 320 75.25 0
      vertex 320 119.75 1.88
      vertex 320 119.75 0
    endloop
  endfacet
  facet normal -1 -0 0
    outer loop
      vertex 320 119.75 1.88
      vertex 320 75.25 0
      vertex 320 75.25 1.88
    endloop
  endfacet
  facet normal -1 0 0
    outer loop
      vertex 320 20.25 0
      vertex 320 64.75 1.88
      vertex 320 64.75 0
    endloop
  endfacet
  facet normal -1 -0 0
    outer loop
      vertex 320 64.75 1.88
      vertex 320 20.25 0
      vertex 320 20.25 1.88
    endloop
  endfacet
  facet normal 0 1 -0
    outer loop
      vertex 350 160 0
      vertex 320 160 1.88
      vertex 350 160 1.88
    endloop
  endfacet
  facet normal 0 1 0
    outer loop
      vertex 320 160 1.88
      vertex 350 160 0
      vertex 320 160 0
    endloop
  endfacet
  facet normal 0 1 -0
    outer loop
      vertex 480 160 0
      vertex 450 160 1.88
      vertex 480 160 1.88
    endloop
  endfacet
  facet normal 0 1 0
    outer loop
      vertex 450 160 1.88
      vertex 480 160 0
      vertex 450 160 0
    endloop
  endfacet
  facet normal 0 1 -0
    outer loop
      vertex 440 160 0
      vertex 405 160 1.88
      vertex 440 160 1.88
    endloop
  endfacet
  facet normal 0 1 0
    outer loop
      vertex 405 160 1.88
      vertex 440 160 0
      vertex 405 160 0
    endloop
  endfacet
  facet normal 0 1 -0
    outer loop
      vertex 395 160 0
      vertex 360 160 1.88
      vertex 395 160 1.88
    endloop
  endfacet
  facet normal 0 1 0
    outer loop
      vertex 360 160 1.88
      vertex 395 160 0
      vertex 360 160 0
    endloop
  endfacet
  facet normal 1 -0 0
    outer loop
      vertex 492 7 1.88
      vertex 492 23 0
      vertex 492 23 1.88
    endloop
  endfacet
  facet normal 1 0 0
    outer loop
      vertex 492 23 0
      vertex 492 7 1.88
      vertex 492 7 0
    endloop
  endfacet
  facet normal -0.242536 -0.970143 0
    outer loop
      vertex 480 10 0
      vertex 492 7 1.88
      vertex 480 10 1.88
    endloop
  endfacet
  facet normal -0.242536 -0.970143 -0
    outer loop
      vertex 492 7 1.88
      vertex 480 10 0
      vertex 492 7 0
    endloop
  endfacet
  facet normal -0.242536 0.970143 0
    outer loop
      vertex 492 23 0
      vertex 480 20 1.88
      vertex 492 23 1.88
    endloop
  endfacet
  facet normal -0.242536 0.970143 0
    outer loop
      vertex 480 20 1.88
      vertex 492 23 0
      vertex 480 20 0
    endloop
  endfacet
  facet normal 1 -0 0
    outer loop
      vertex 492 62 1.88
      vertex 492 78 0
      vertex 492 78 1.88
    endloop
  endfacet
  facet normal 1 0 0
    outer loop
      vertex 492 78 0
      vertex 492 62 1.88
      vertex 492 62 0
    endloop
  endfacet
  facet normal -0.242536 -0.970143 0
    outer loop
      vertex 480 65 0
      vertex 492 62 1.88
      vertex 480 65 1.88
    endloop
  endfacet
  facet normal -0.242536 -0.970143 -0
    outer loop
      vertex 492 62 1.88
      vertex 480 65 0
      vertex 492 62 0
    endloop
  endfacet
  facet normal -0.242536 0.970143 0
    outer loop
      vertex 492 78 0
      vertex 480 75 1.88
      vertex 492 78 1.88
    endloop
  endfacet
  facet normal -0.242536 0.970143 0
    outer loop
      vertex 480 75 1.88
      vertex 492 78 0
      vertex 480 75 0
    endloop
  endfacet
  facet normal 1 -0 0
    outer loop
      vertex 492 117 1.88
      vertex 492 133 0
      vertex 492 133 1.88
    endloop
  endfacet
  facet normal 1 0 0
    outer loop
      vertex 492 133 0
      vertex 492 117 1.88
      vertex 492 117 0
    endloop
  endfacet
  facet normal -0.242536 -0.970143 0
    outer loop
      vertex 480 120 0
      vertex 492 117 1.88
      vertex 480 120 1.88
    endloop
  endfacet
  facet normal -0.242536 -0.970143 -0
    outer loop
      vertex 492 117 1.88
      vertex 480 120 0
      vertex 492 117 0
    endloop
  endfacet
  facet normal -0.242536 0.970143 0
    outer loop
      vertex 492 133 0
      vertex 480 130 1.88
      vertex 492 133 1.88
    endloop
  endfacet
  facet normal -0.242536 0.970143 0
    outer loop
      vertex 480 130 1.88
      vertex 492 133 0
      vertex 480 130 0
    endloop
  endfacet
  facet normal 0.970143 -0.242536 0
    outer loop
      vertex 360 160 1.88
      vertex 363 172 0
      vertex 363 172 1.88
    endloop
  endfacet
  facet normal 0.970143 -0.242536 0
    outer loop
      vertex 363 172 0
      vertex 360 160 1.88
      vertex 360 160 0
    endloop
  endfacet
  facet normal -0.970143 -0.242536 0
    outer loop
      vertex 350 160 0
      vertex 347 172 1.88
      vertex 347 172 0
    endloop
  endfacet
  facet normal -0.970143 -0.242536 0
    outer loop
      vertex 347 172 1.88
      vertex 350 160 0
      vertex 350 160 1.88
    endloop
  endfacet
  facet normal 0 1 -0
    outer loop
      vertex 363 172 0
      vertex 347 172 1.88
      vertex 363 172 1.88
    endloop
  endfacet
  facet normal 0 1 0
    outer loop
      vertex 347 172 1.88
      vertex 363 172 0
      vertex 347 172 0
    endloop
  endfacet
  facet normal 0.970143 -0.242536 0
    outer loop
      vertex 405 160 1.88
      vertex 408 172 0
      vertex 408 172 1.88
    endloop
  endfacet
  facet normal 0.970143 -0.242536 0
    outer loop
      vertex 408 172 0
      vertex 405 160 1.88
      vertex 405 160 0
    endloop
  endfacet
  facet normal 0 1 -0
    outer loop
      vertex 408 172 0
      vertex 392 172 1.88
      vertex 408 172 1.88
    endloop
  endfacet
  facet normal 0 1 0
    outer loop
      vertex 392 172 1.88
      vertex 408 172 0
      vertex 392 172 0
    endloop
  endfacet
  facet normal -0.970143 -0.242536 0
    outer loop
      vertex 395 160 0
      vertex 392 172 1.88
      vertex 392 172 0
    endloop
  endfacet
  facet normal -0.970143 -0.242536 0
    outer loop
      vertex 392 172 1.88
      vertex 395 160 0
      vertex 395 160 1.88
    endloop
  endfacet
  facet normal 0.970143 -0.242536 0
    outer loop
      vertex 450 160 1.88
      vertex 453 172 0
      vertex 453 172 1.88
    endloop
  endfacet
  facet normal 0.970143 -0.242536 0
    outer loop
      vertex 453 172 0
      vertex 450 160 1.88
      vertex 450 160 0
    endloop
  endfacet
  facet normal 0 1 -0
    outer loop
      vertex 453 172 0
      vertex 437 172 1.88
      vertex 453 172 1.88
    endloop
  endfacet
  facet normal 0 1 0
    outer loop
      vertex 437 172 1.88
      vertex 453 172 0
      vertex 437 172 0
    endloop
  endfacet
  facet normal -0.970143 -0.242536 0
    outer loop
      vertex 440 160 0
      vertex 437 172 1.88
      vertex 437 172 0
    endloop
  endfacet
  facet normal -0.970143 -0.242536 0
    outer loop
      vertex 437 172 1.88
      vertex 440 160 0
      vertex 440 160 1.88
    endloop
  endfacet
  facet normal -1 0 0
    outer loop
      vertex 332 6.75 0
      vertex 332 23.25 1.88
      vertex 332 23.25 0
    endloop
  endfacet
  facet normal -1 -0 0
    outer loop
      vertex 332 23.25 1.88
      vertex 332 6.75 0
      vertex 332 6.75 1.88
    endloop
  endfacet
  facet normal 0.242536 0.970143 -0
    outer loop
      vertex 332 6.75 0
      vertex 320 9.75 1.88
      vertex 332 6.75 1.88
    endloop
  endfacet
  facet normal 0.242536 0.970143 0
    outer loop
      vertex 320 9.75 1.88
      vertex 332 6.75 0
      vertex 320 9.75 0
    endloop
  endfacet
  facet normal 0.242536 -0.970143 0
    outer loop
      vertex 320 20.25 0
      vertex 332 23.25 1.88
      vertex 320 20.25 1.88
    endloop
  endfacet
  facet normal 0.242536 -0.970143 0
    outer loop
      vertex 332 23.25 1.88
      vertex 320 20.25 0
      vertex 332 23.25 0
    endloop
  endfacet
  facet normal -1 0 0
    outer loop
      vertex 332 61.75 0
      vertex 332 78.25 1.88
      vertex 332 78.25 0
    endloop
  endfacet
  facet normal -1 -0 0
    outer loop
      vertex 332 78.25 1.88
      vertex 332 61.75 0
      vertex 332 61.75 1.88
    endloop
  endfacet
  facet normal 0.242536 0.970143 -0
    outer loop
      vertex 332 61.75 0
      vertex 320 64.75 1.88
      vertex 332 61.75 1.88
    endloop
  endfacet
  facet normal 0.242536 0.970143 0
    outer loop
      vertex 320 64.75 1.88
      vertex 332 61.75 0
      vertex 320 64.75 0
    endloop
  endfacet
  facet normal 0.242536 -0.970143 0
    outer loop
      vertex 320 75.25 0
      vertex 332 78.25 1.88
      vertex 320 75.25 1.88
    endloop
  endfacet
  facet normal 0.242536 -0.970143 0
    outer loop
      vertex 332 78.25 1.88
      vertex 320 75.25 0
      vertex 332 78.25 0
    endloop
  endfacet
  facet normal -1 0 0
    outer loop
      vertex 332 116.75 0
      vertex 332 133.25 1.88
      vertex 332 133.25 0
    endloop
  endfacet
  facet normal -1 -0 0
    outer loop
      vertex 332 133.25 1.88
      vertex 332 116.75 0
      vertex 332 116.75 1.88
    endloop
  endfacet
  facet normal 0.242536 0.970143 -0
    outer loop
      vertex 332 116.75 0
      vertex 320 119.75 1.88
      vertex 332 116.75 1.88
    endloop
  endfacet
  facet normal 0.242536 0.970143 0
    outer loop
      vertex 320 119.75 1.88
      vertex 332 116.75 0
      vertex 320 119.75 0
    endloop
  endfacet
  facet normal 0.242536 -0.970143 0
    outer loop
      vertex 320 130.25 0
      vertex 332 133.25 1.88
      vertex 320 130.25 1.88
    endloop
  endfacet
  facet normal 0.242536 -0.970143 0
    outer loop
      vertex 332 133.25 1.88
      vertex 320 130.25 0
      vertex 332 133.25 0
    endloop
  endfacet
endsolid OpenSCAD_Model
