solid OpenSCAD_Model
  facet normal 0 0 -1
    outer loop
      vertex 160 75.25 0
      vertex 172 116.75 0
      vertex 172 78.25 0
    endloop
  endfacet
  facet normal -0 0 -1
    outer loop
      vertex 172 116.75 0
      vertex 160 75.25 0
      vertex 160 119.75 0
    endloop
  endfacet
  facet normal 0 0 -1
    outer loop
      vertex 160 20.25 0
      vertex 172 61.75 0
      vertex 172 23.25 0
    endloop
  endfacet
  facet normal -0 0 -1
    outer loop
      vertex 172 61.75 0
      vertex 160 20.25 0
      vertex 160 64.75 0
    endloop
  endfacet
  facet normal 0 0 -1
    outer loop
      vertex 172 6.75 0
      vertex 320 10 0
      vertex 320 -19.3405 0
    endloop
  endfacet
  facet normal -0 0 -1
    outer loop
      vertex 320 10 0
      vertex 172 6.75 0
      vertex 320 20 0
    endloop
  endfacet
  facet normal 0 0 -1
    outer loop
      vertex 320 20 0
      vertex 172 23.25 0
      vertex 320 65 0
    endloop
  endfacet
  facet normal 0 0 -1
    outer loop
      vertex 172 61.75 0
      vertex 320 65 0
      vertex 172 23.25 0
    endloop
  endfacet
  facet normal 0 0 -1
    outer loop
      vertex 172 78.25 0
      vertex 320 75 0
      vertex 172 61.75 0
    endloop
  endfacet
  facet normal 0 -0 -1
    outer loop
      vertex 245 160 0
      vertex 320 75 0
      vertex 172 78.25 0
    endloop
  endfacet
  facet normal 0 0 -1
    outer loop
      vertex 320 130 0
      vertex 290 160 0
      vertex 320 160 0
    endloop
  endfacet
  facet normal 0 0 -1
    outer loop
      vertex 320 130 0
      vertex 280 160 0
      vertex 290 160 0
    endloop
  endfacet
  facet normal 0 0 -1
    outer loop
      vertex 320 75 0
      vertex 245 160 0
      vertex 320 120 0
    endloop
  endfacet
  facet normal 0 0 -1
    outer loop
      vertex 320 120 0
      vertex 280 160 0
      vertex 320 130 0
    endloop
  endfacet
  facet normal -0 -0 -1
    outer loop
      vertex 280 160 0
      vertex 320 120 0
      vertex 245 160 0
    endloop
  endfacet
  facet normal 0 0 -1
    outer loop
      vertex 172 116.75 0
      vertex 235 160 0
      vertex 172 78.25 0
    endloop
  endfacet
  facet normal -0 0 -1
    outer loop
      vertex 320 20 0
      vertex 172 6.75 0
      vertex 172 23.25 0
    endloop
  endfacet
  facet normal 0 0 -1
    outer loop
      vertex 160 -19.0227 0
      vertex 172 6.75 0
      vertex 320 -19.3405 0
    endloop
  endfacet
  facet normal -0 0 -1
    outer loop
      vertex 172 6.75 0
      vertex 160 -19.0227 0
      vertex 160 9.75 0
    endloop
  endfacet
  facet normal 0 0 -1
    outer loop
      vertex 320 10 0
      vertex 332 23 0
      vertex 332 7 0
    endloop
  endfacet
  facet normal 0 0 -1
    outer loop
      vertex 332 23 0
      vertex 320 10 0
      vertex 320 20 0
    endloop
  endfacet
  facet normal 0 0 -1
    outer loop
      vertex 320 65 0
      vertex 332 78 0
      vertex 332 62 0
    endloop
  endfacet
  facet normal 0 0 -1
    outer loop
      vertex 332 78 0
      vertex 320 65 0
      vertex 320 75 0
    endloop
  endfacet
  facet normal 0 0 -1
    outer loop
      vertex 320 120 0
      vertex 332 133 0
      vertex 332 117 0
    endloop
  endfacet
  facet normal 0 0 -1
    outer loop
      vertex 332 133 0
      vertex 320 120 0
      vertex 320 130 0
    endloop
  endfacet
  facet normal 0 0 -1
    outer loop
      vertex 280 160 0
      vertex 293 172 0
      vertex 290 160 0
    endloop
  endfacet
  facet normal -0 0 -1
    outer loop
      vertex 293 172 0
      vertex 280 160 0
      vertex 277 172 0
    endloop
  endfacet
  facet normal 0 0 -1
    outer loop
      vertex 235 160 0
      vertex 248 172 0
      vertex 245 160 0
    endloop
  endfacet
  facet normal -0 0 -1
    outer loop
      vertex 248 172 0
      vertex 235 160 0
      vertex 232 172 0
    endloop
  endfacet
  facet normal 0 0 -1
    outer loop
      vertex 190 160 0
      vertex 203 172 0
      vertex 200 160 0
    endloop
  endfacet
  facet normal -0 0 -1
    outer loop
      vertex 203 172 0
      vertex 190 160 0
      vertex 187 172 0
    endloop
  endfacet
  facet normal -0 0 -1
    outer loop
      vertex 320 65 0
      vertex 172 61.75 0
      vertex 320 75 0
    endloop
  endfacet
  facet normal -0 0 -1
    outer loop
      vertex 245 160 0
      vertex 172 78.25 0
      vertex 235 160 0
    endloop
  endfacet
  facet normal -0 0 -1
    outer loop
      vertex 235 160 0
      vertex 172 116.75 0
      vertex 200 160 0
    endloop
  endfacet
  facet normal 0 0 -1
    outer loop
      vertex 172 133.25 0
      vertex 200 160 0
      vertex 172 116.75 0
    endloop
  endfacet
  facet normal -0 0 -1
    outer loop
      vertex 200 160 0
      vertex 172 133.25 0
      vertex 190 160 0
    endloop
  endfacet
  facet normal 0 0 -1
    outer loop
      vertex 160 160 0
      vertex 172 133.25 0
      vertex 160 130.25 0
    endloop
  endfacet
  facet normal 0 0 -1
    outer loop
      vertex 172 133.25 0
      vertex 160 160 0
      vertex 190 160 0
    endloop
  endfacet
  facet normal -0.00198625 -0.999998 0
    outer loop
      vertex 160 -19.0227 0
      vertex 320 -19.3405 1.88
      vertex 160 -19.0227 1.88
    endloop
  endfacet
  facet normal -0.00198625 -0.999998 -0
    outer loop
      vertex 320 -19.3405 1.88
      vertex 160 -19.0227 0
      vertex 320 -19.3405 0
    endloop
  endfacet
  facet normal 0 0 1
    outer loop
      vertex 160 64.75 1.88
      vertex 172 23.25 1.88
      vertex 172 61.75 1.88
    endloop
  endfacet
  facet normal 0 0 1
    outer loop
      vertex 172 23.25 1.88
      vertex 160 64.75 1.88
      vertex 160 20.25 1.88
    endloop
  endfacet
  facet normal 0 0 1
    outer loop
      vertex 160 119.75 1.88
      vertex 172 78.25 1.88
      vertex 172 116.75 1.88
    endloop
  endfacet
  facet normal 0 0 1
    outer loop
      vertex 172 78.25 1.88
      vertex 160 119.75 1.88
      vertex 160 75.25 1.88
    endloop
  endfacet
  facet normal -0 0 1
    outer loop
      vertex 160 160 1.88
      vertex 172 133.25 1.88
      vertex 190 160 1.88
    endloop
  endfacet
  facet normal 0 0 1
    outer loop
      vertex 172 133.25 1.88
      vertex 160 160 1.88
      vertex 160 130.25 1.88
    endloop
  endfacet
  facet normal 0 0 1
    outer loop
      vertex 203 172 1.88
      vertex 190 160 1.88
      vertex 200 160 1.88
    endloop
  endfacet
  facet normal 0 -0 1
    outer loop
      vertex 190 160 1.88
      vertex 203 172 1.88
      vertex 187 172 1.88
    endloop
  endfacet
  facet normal 0 0 1
    outer loop
      vertex 248 172 1.88
      vertex 235 160 1.88
      vertex 245 160 1.88
    endloop
  endfacet
  facet normal 0 -0 1
    outer loop
      vertex 235 160 1.88
      vertex 248 172 1.88
      vertex 232 172 1.88
    endloop
  endfacet
  facet normal 0 0 1
    outer loop
      vertex 293 172 1.88
      vertex 280 160 1.88
      vertex 290 160 1.88
    endloop
  endfacet
  facet normal 0 -0 1
    outer loop
      vertex 280 160 1.88
      vertex 293 172 1.88
      vertex 277 172 1.88
    endloop
  endfacet
  facet normal -0 0 1
    outer loop
      vertex 290 160 1.88
      vertex 320 130 1.88
      vertex 320 160 1.88
    endloop
  endfacet
  facet normal 0 0 1
    outer loop
      vertex 320 130 1.88
      vertex 290 160 1.88
      vertex 320 120 1.88
    endloop
  endfacet
  facet normal -0 0 1
    outer loop
      vertex 280 160 1.88
      vertex 320 120 1.88
      vertex 290 160 1.88
    endloop
  endfacet
  facet normal -0 0 1
    outer loop
      vertex 245 160 1.88
      vertex 320 120 1.88
      vertex 280 160 1.88
    endloop
  endfacet
  facet normal 0 0 1
    outer loop
      vertex 320 120 1.88
      vertex 245 160 1.88
      vertex 320 75 1.88
    endloop
  endfacet
  facet normal -0 0 1
    outer loop
      vertex 172 78.25 1.88
      vertex 320 75 1.88
      vertex 245 160 1.88
    endloop
  endfacet
  facet normal 0 0 1
    outer loop
      vertex 320 75 1.88
      vertex 172 78.25 1.88
      vertex 320 65 1.88
    endloop
  endfacet
  facet normal 0 0 1
    outer loop
      vertex 172 61.75 1.88
      vertex 320 65 1.88
      vertex 172 78.25 1.88
    endloop
  endfacet
  facet normal 0 0 1
    outer loop
      vertex 320 65 1.88
      vertex 172 61.75 1.88
      vertex 320 20 1.88
    endloop
  endfacet
  facet normal 0 0 1
    outer loop
      vertex 172 78.25 1.88
      vertex 245 160 1.88
      vertex 235 160 1.88
    endloop
  endfacet
  facet normal 0 0 1
    outer loop
      vertex 172 116.75 1.88
      vertex 235 160 1.88
      vertex 200 160 1.88
    endloop
  endfacet
  facet normal 0 0 1
    outer loop
      vertex 172 133.25 1.88
      vertex 200 160 1.88
      vertex 190 160 1.88
    endloop
  endfacet
  facet normal 0 0 1
    outer loop
      vertex 200 160 1.88
      vertex 172 133.25 1.88
      vertex 172 116.75 1.88
    endloop
  endfacet
  facet normal 0 0 1
    outer loop
      vertex 235 160 1.88
      vertex 172 116.75 1.88
      vertex 172 78.25 1.88
    endloop
  endfacet
  facet normal -0 0 1
    outer loop
      vertex 172 23.25 1.88
      vertex 320 20 1.88
      vertex 172 61.75 1.88
    endloop
  endfacet
  facet normal 0 0 1
    outer loop
      vertex 320 20 1.88
      vertex 172 23.25 1.88
      vertex 320 10 1.88
    endloop
  endfacet
  facet normal 0 0 1
    outer loop
      vertex 172 6.75 1.88
      vertex 320 10 1.88
      vertex 172 23.25 1.88
    endloop
  endfacet
  facet normal 0 0 1
    outer loop
      vertex 320 10 1.88
      vertex 172 6.75 1.88
      vertex 320 -19.3405 1.88
    endloop
  endfacet
  facet normal 0 0 1
    outer loop
      vertex 172 6.75 1.88
      vertex 160 -19.0227 1.88
      vertex 320 -19.3405 1.88
    endloop
  endfacet
  facet normal 0 0 1
    outer loop
      vertex 160 -19.0227 1.88
      vertex 172 6.75 1.88
      vertex 160 9.75 1.88
    endloop
  endfacet
  facet normal -0 0 1
    outer loop
      vertex 320 130 1.88
      vertex 332 117 1.88
      vertex 332 133 1.88
    endloop
  endfacet
  facet normal 0 0 1
    outer loop
      vertex 332 117 1.88
      vertex 320 130 1.88
      vertex 320 120 1.88
    endloop
  endfacet
  facet normal -0 0 1
    outer loop
      vertex 320 75 1.88
      vertex 332 62 1.88
      vertex 332 78 1.88
    endloop
  endfacet
  facet normal 0 0 1
    outer loop
      vertex 332 62 1.88
      vertex 320 75 1.88
      vertex 320 65 1.88
    endloop
  endfacet
  facet normal -0 0 1
    outer loop
      vertex 320 20 1.88
      vertex 332 7 1.88
      vertex 332 23 1.88
    endloop
  endfacet
  facet normal 0 0 1
    outer loop
      vertex 332 7 1.88
      vertex 320 20 1.88
      vertex 320 10 1.88
    endloop
  endfacet
  facet normal 1 -0 0
    outer loop
      vertex 320 -19.3405 1.88
      vertex 320 10 0
      vertex 320 10 1.88
    endloop
  endfacet
  facet normal 1 0 0
    outer loop
      vertex 320 10 0
      vertex 320 -19.3405 1.88
      vertex 320 -19.3405 0
    endloop
  endfacet
  facet normal 1 -0 0
    outer loop
      vertex 320 130 1.88
      vertex 320 160 0
      vertex 320 160 1.88
    endloop
  endfacet
  facet normal 1 0 0
    outer loop
      vertex 320 160 0
      vertex 320 130 1.88
      vertex 320 130 0
    endloop
  endfacet
  facet normal 1 -0 0
    outer loop
      vertex 320 75 1.88
      vertex 320 120 0
      vertex 320 120 1.88
    endloop
  endfacet
  facet normal 1 0 0
    outer loop
      vertex 320 120 0
      vertex 320 75 1.88
      vertex 320 75 0
    endloop
  endfacet
  facet normal 1 -0 0
    outer loop
      vertex 320 20 1.88
      vertex 320 65 0
      vertex 320 65 1.88
    endloop
  endfacet
  facet normal 1 0 0
    outer loop
      vertex 320 65 0
      vertex 320 20 1.88
      vertex 320 20 0
    endloop
  endfacet
  facet normal -1 0 0
    outer loop
      vertex 160 -19.0227 0
      vertex 160 9.75 1.88
      vertex 160 9.75 0
    endloop
  endfacet
  facet normal -1 -0 0
    outer loop
      vertex 160 9.75 1.88
      vertex 160 -19.0227 0
      vertex 160 -19.0227 1.88
    endloop
  endfacet
  facet normal -1 0 0
    outer loop
      vertex 160 130.25 0
      vertex 160 160 1.88
      vertex 160 160 0
    endloop
  endfacet
  facet normal -1 -0 0
    outer loop
      vertex 160 160 1.88
      vertex 160 130.25 0
      vertex 160 130.25 1.88
    endloop
  endfacet
  facet normal -1 0 0
    outer loop
      vertex 160 75.25 0
      vertex 160 119.75 1.88
      vertex 160 119.75 0
    endloop
  endfacet
  facet normal -1 -0 0
    outer loop
      vertex 160 119.75 1.88
      vertex 160 75.25 0
      vertex 160 75.25 1.88
    endloop
  endfacet
  facet normal -1 0 0
    outer loop
      vertex 160 20.25 0
      vertex 160 64.75 1.88
      vertex 160 64.75 0
    endloop
  endfacet
  facet normal -1 -0 0
    outer loop
      vertex 160 64.75 1.88
      vertex 160 20.25 0
      vertex 160 20.25 1.88
    endloop
  endfacet
  facet normal 0 1 -0
    outer loop
      vertex 190 160 0
      vertex 160 160 1.88
      vertex 190 160 1.88
    endloop
  endfacet
  facet normal 0 1 0
    outer loop
      vertex 160 160 1.88
      vertex 190 160 0
      vertex 160 160 0
    endloop
  endfacet
  facet normal 0 1 -0
    outer loop
      vertex 320 160 0
      vertex 290 160 1.88
      vertex 320 160 1.88
    endloop
  endfacet
  facet normal 0 1 0
    outer loop
      vertex 290 160 1.88
      vertex 320 160 0
      vertex 290 160 0
    endloop
  endfacet
  facet normal 0 1 -0
    outer loop
      vertex 280 160 0
      vertex 245 160 1.88
      vertex 280 160 1.88
    endloop
  endfacet
  facet normal 0 1 0
    outer loop
      vertex 245 160 1.88
      vertex 280 160 0
      vertex 245 160 0
    endloop
  endfacet
  facet normal 0 1 -0
    outer loop
      vertex 235 160 0
      vertex 200 160 1.88
      vertex 235 160 1.88
    endloop
  endfacet
  facet normal 0 1 0
    outer loop
      vertex 200 160 1.88
      vertex 235 160 0
      vertex 200 160 0
    endloop
  endfacet
  facet normal 1 -0 0
    outer loop
      vertex 332 7 1.88
      vertex 332 23 0
      vertex 332 23 1.88
    endloop
  endfacet
  facet normal 1 0 0
    outer loop
      vertex 332 23 0
      vertex 332 7 1.88
      vertex 332 7 0
    endloop
  endfacet
  facet normal -0.242536 -0.970143 0
    outer loop
      vertex 320 10 0
      vertex 332 7 1.88
      vertex 320 10 1.88
    endloop
  endfacet
  facet normal -0.242536 -0.970143 -0
    outer loop
      vertex 332 7 1.88
      vertex 320 10 0
      vertex 332 7 0
    endloop
  endfacet
  facet normal -0.242536 0.970143 0
    outer loop
      vertex 332 23 0
      vertex 320 20 1.88
      vertex 332 23 1.88
    endloop
  endfacet
  facet normal -0.242536 0.970143 0
    outer loop
      vertex 320 20 1.88
      vertex 332 23 0
      vertex 320 20 0
    endloop
  endfacet
  facet normal 1 -0 0
    outer loop
      vertex 332 62 1.88
      vertex 332 78 0
      vertex 332 78 1.88
    endloop
  endfacet
  facet normal 1 0 0
    outer loop
      vertex 332 78 0
      vertex 332 62 1.88
      vertex 332 62 0
    endloop
  endfacet
  facet normal -0.242536 -0.970143 0
    outer loop
      vertex 320 65 0
      vertex 332 62 1.88
      vertex 320 65 1.88
    endloop
  endfacet
  facet normal -0.242536 -0.970143 -0
    outer loop
      vertex 332 62 1.88
      vertex 320 65 0
      vertex 332 62 0
    endloop
  endfacet
  facet normal -0.242536 0.970143 0
    outer loop
      vertex 332 78 0
      vertex 320 75 1.88
      vertex 332 78 1.88
    endloop
  endfacet
  facet normal -0.242536 0.970143 0
    outer loop
      vertex 320 75 1.88
      vertex 332 78 0
      vertex 320 75 0
    endloop
  endfacet
  facet normal 1 -0 0
    outer loop
      vertex 332 117 1.88
      vertex 332 133 0
      vertex 332 133 1.88
    endloop
  endfacet
  facet normal 1 0 0
    outer loop
      vertex 332 133 0
      vertex 332 117 1.88
      vertex 332 117 0
    endloop
  endfacet
  facet normal -0.242536 -0.970143 0
    outer loop
      vertex 320 120 0
      vertex 332 117 1.88
      vertex 320 120 1.88
    endloop
  endfacet
  facet normal -0.242536 -0.970143 -0
    outer loop
      vertex 332 117 1.88
      vertex 320 120 0
      vertex 332 117 0
    endloop
  endfacet
  facet normal -0.242536 0.970143 0
    outer loop
      vertex 332 133 0
      vertex 320 130 1.88
      vertex 332 133 1.88
    endloop
  endfacet
  facet normal -0.242536 0.970143 0
    outer loop
      vertex 320 130 1.88
      vertex 332 133 0
      vertex 320 130 0
    endloop
  endfacet
  facet normal 0.970143 -0.242536 0
    outer loop
      vertex 200 160 1.88
      vertex 203 172 0
      vertex 203 172 1.88
    endloop
  endfacet
  facet normal 0.970143 -0.242536 0
    outer loop
      vertex 203 172 0
      vertex 200 160 1.88
      vertex 200 160 0
    endloop
  endfacet
  facet normal 0 1 -0
    outer loop
      vertex 203 172 0
      vertex 187 172 1.88
      vertex 203 172 1.88
    endloop
  endfacet
  facet normal 0 1 0
    outer loop
      vertex 187 172 1.88
      vertex 203 172 0
      vertex 187 172 0
    endloop
  endfacet
  facet normal -0.970143 -0.242536 0
    outer loop
      vertex 190 160 0
      vertex 187 172 1.88
      vertex 187 172 0
    endloop
  endfacet
  facet normal -0.970143 -0.242536 0
    outer loop
      vertex 187 172 1.88
      vertex 190 160 0
      vertex 190 160 1.88
    endloop
  endfacet
  facet normal 0.970143 -0.242536 0
    outer loop
      vertex 245 160 1.88
      vertex 248 172 0
      vertex 248 172 1.88
    endloop
  endfacet
  facet normal 0.970143 -0.242536 0
    outer loop
      vertex 248 172 0
      vertex 245 160 1.88
      vertex 245 160 0
    endloop
  endfacet
  facet normal 0 1 -0
    outer loop
      vertex 248 172 0
      vertex 232 172 1.88
      vertex 248 172 1.88
    endloop
  endfacet
  facet normal 0 1 0
    outer loop
      vertex 232 172 1.88
      vertex 248 172 0
      vertex 232 172 0
    endloop
  endfacet
  facet normal -0.970143 -0.242536 0
    outer loop
      vertex 235 160 0
      vertex 232 172 1.88
      vertex 232 172 0
    endloop
  endfacet
  facet normal -0.970143 -0.242536 0
    outer loop
      vertex 232 172 1.88
      vertex 235 160 0
      vertex 235 160 1.88
    endloop
  endfacet
  facet normal 0.970143 -0.242536 0
    outer loop
      vertex 290 160 1.88
      vertex 293 172 0
      vertex 293 172 1.88
    endloop
  endfacet
  facet normal 0.970143 -0.242536 0
    outer loop
      vertex 293 172 0
      vertex 290 160 1.88
      vertex 290 160 0
    endloop
  endfacet
  facet normal 0 1 -0
    outer loop
      vertex 293 172 0
      vertex 277 172 1.88
      vertex 293 172 1.88
    endloop
  endfacet
  facet normal 0 1 0
    outer loop
      vertex 277 172 1.88
      vertex 293 172 0
      vertex 277 172 0
    endloop
  endfacet
  facet normal -0.970143 -0.242536 0
    outer loop
      vertex 280 160 0
      vertex 277 172 1.88
      vertex 277 172 0
    endloop
  endfacet
  facet normal -0.970143 -0.242536 0
    outer loop
      vertex 277 172 1.88
      vertex 280 160 0
      vertex 280 160 1.88
    endloop
  endfacet
  facet normal -1 0 0
    outer loop
      vertex 172 6.75 0
      vertex 172 23.25 1.88
      vertex 172 23.25 0
    endloop
  endfacet
  facet normal -1 -0 0
    outer loop
      vertex 172 23.25 1.88
      vertex 172 6.75 0
      vertex 172 6.75 1.88
    endloop
  endfacet
  facet normal 0.242536 0.970143 -0
    outer loop
      vertex 172 6.75 0
      vertex 160 9.75 1.88
      vertex 172 6.75 1.88
    endloop
  endfacet
  facet normal 0.242536 0.970143 0
    outer loop
      vertex 160 9.75 1.88
      vertex 172 6.75 0
      vertex 160 9.75 0
    endloop
  endfacet
  facet normal 0.242536 -0.970143 0
    outer loop
      vertex 160 20.25 0
      vertex 172 23.25 1.88
      vertex 160 20.25 1.88
    endloop
  endfacet
  facet normal 0.242536 -0.970143 0
    outer loop
      vertex 172 23.25 1.88
      vertex 160 20.25 0
      vertex 172 23.25 0
    endloop
  endfacet
  facet normal -1 0 0
    outer loop
      vertex 172 61.75 0
      vertex 172 78.25 1.88
      vertex 172 78.25 0
    endloop
  endfacet
  facet normal -1 -0 0
    outer loop
      vertex 172 78.25 1.88
      vertex 172 61.75 0
      vertex 172 61.75 1.88
    endloop
  endfacet
  facet normal 0.242536 0.970143 -0
    outer loop
      vertex 172 61.75 0
      vertex 160 64.75 1.88
      vertex 172 61.75 1.88
    endloop
  endfacet
  facet normal 0.242536 0.970143 0
    outer loop
      vertex 160 64.75 1.88
      vertex 172 61.75 0
      vertex 160 64.75 0
    endloop
  endfacet
  facet normal 0.242536 -0.970143 0
    outer loop
      vertex 160 75.25 0
      vertex 172 78.25 1.88
      vertex 160 75.25 1.88
    endloop
  endfacet
  facet normal 0.242536 -0.970143 0
    outer loop
      vertex 172 78.25 1.88
      vertex 160 75.25 0
      vertex 172 78.25 0
    endloop
  endfacet
  facet normal -1 0 0
    outer loop
      vertex 172 116.75 0
      vertex 172 133.25 1.88
      vertex 172 133.25 0
    endloop
  endfacet
  facet normal -1 -0 0
    outer loop
      vertex 172 133.25 1.88
      vertex 172 116.75 0
      vertex 172 116.75 1.88
    endloop
  endfacet
  facet normal 0.242536 0.970143 -0
    outer loop
      vertex 172 116.75 0
      vertex 160 119.75 1.88
      vertex 172 116.75 1.88
    endloop
  endfacet
  facet normal 0.242536 0.970143 0
    outer loop
      vertex 160 119.75 1.88
      vertex 172 116.75 0
      vertex 160 119.75 0
    endloop
  endfacet
  facet normal 0.242536 -0.970143 0
    outer loop
      vertex 160 130.25 0
      vertex 172 133.25 1.88
      vertex 160 130.25 1.88
    endloop
  endfacet
  facet normal 0.242536 -0.970143 0
    outer loop
      vertex 172 133.25 1.88
      vertex 160 130.25 0
      vertex 172 133.25 0
    endloop
  endfacet
endsolid OpenSCAD_Model
