solid OpenSCAD_Model
  facet normal -0.98919 -0.146641 0
    outer loop
      vertex -14.3079 15.5491 0
      vertex -14.4518 16.5198 0.799999
      vertex -14.4518 16.5198 0
    endloop
  endfacet
  facet normal -0.98919 -0.146641 0
    outer loop
      vertex -14.4518 16.5198 0.799999
      vertex -14.3079 15.5491 0
      vertex -14.3079 15.5491 0.799999
    endloop
  endfacet
  facet normal 0.98919 -0.146641 0
    outer loop
      vertex 14.3079 15.5491 0.799999
      vertex 14.4518 16.5198 0
      vertex 14.4518 16.5198 0.799999
    endloop
  endfacet
  facet normal 0.98919 -0.146641 0
    outer loop
      vertex 14.4518 16.5198 0
      vertex 14.3079 15.5491 0.799999
      vertex 14.3079 15.5491 0
    endloop
  endfacet
  facet normal -0.0491158 0.998793 0
    outer loop
      vertex -4.5 27.5 0
      vertex -5.48017 27.4518 0.799999
      vertex -4.5 27.5 0.799999
    endloop
  endfacet
  facet normal -0.0491158 0.998793 0
    outer loop
      vertex -5.48017 27.4518 0.799999
      vertex -4.5 27.5 0
      vertex -5.48017 27.4518 0
    endloop
  endfacet
  facet normal 0.59572 0.803192 -0
    outer loop
      vertex 10.8439 25.2301 0
      vertex 10.0557 25.8147 0.799999
      vertex 10.8439 25.2301 0.799999
    endloop
  endfacet
  facet normal 0.59572 0.803192 0
    outer loop
      vertex 10.0557 25.8147 0.799999
      vertex 10.8439 25.2301 0
      vertex 10.0557 25.8147 0
    endloop
  endfacet
  facet normal -0.998793 -0.0491143 0
    outer loop
      vertex -14.4518 16.5198 0
      vertex -14.5 17.5 0.799999
      vertex -14.5 17.5 0
    endloop
  endfacet
  facet normal -0.998793 -0.0491143 0
    outer loop
      vertex -14.5 17.5 0.799999
      vertex -14.4518 16.5198 0
      vertex -14.4518 16.5198 0.799999
    endloop
  endfacet
  facet normal 0.671581 -0.740931 0
    outer loop
      vertex 2.22038 -2.70554 0
      vertex 2.47487 -2.47487 0.799999
      vertex 2.22038 -2.70554 0.799999
    endloop
  endfacet
  facet normal 0.671581 -0.740931 0
    outer loop
      vertex 2.47487 -2.47487 0.799999
      vertex 2.22038 -2.70554 0
      vertex 2.47487 -2.47487 0
    endloop
  endfacet
  facet normal -0.0490576 -0.998796 0
    outer loop
      vertex -0.34306 -3.48315 0
      vertex 0 -3.5 0.799999
      vertex -0.34306 -3.48315 0.799999
    endloop
  endfacet
  facet normal -0.0490576 -0.998796 -0
    outer loop
      vertex 0 -3.5 0.799999
      vertex -0.34306 -3.48315 0
      vertex 0 -3.5 0
    endloop
  endfacet
  facet normal -0.243027 0.970019 0
    outer loop
      vertex -6.4509 27.3079 0
      vertex -7.40285 27.0694 0.799999
      vertex -6.4509 27.3079 0.799999
    endloop
  endfacet
  facet normal -0.243027 0.970019 0
    outer loop
      vertex -7.40285 27.0694 0.799999
      vertex -6.4509 27.3079 0
      vertex -7.40285 27.0694 0
    endloop
  endfacet
  facet normal -0.595687 -0.803217 0
    outer loop
      vertex -2.22038 -2.70554 0
      vertex -1.9445 -2.91014 0.799999
      vertex -2.22038 -2.70554 0.799999
    endloop
  endfacet
  facet normal -0.595687 -0.803217 -0
    outer loop
      vertex -1.9445 -2.91014 0.799999
      vertex -2.22038 -2.70554 0
      vertex -1.9445 -2.91014 0
    endloop
  endfacet
  facet normal 0.0490576 -0.998796 0
    outer loop
      vertex 0 -3.5 0
      vertex 0.34306 -3.48315 0.799999
      vertex 0 -3.5 0.799999
    endloop
  endfacet
  facet normal 0.0490576 -0.998796 0
    outer loop
      vertex 0.34306 -3.48315 0.799999
      vertex 0 -3.5 0
      vertex 0.34306 -3.48315 0
    endloop
  endfacet
  facet normal 0 1 -0
    outer loop
      vertex 4.5 27.5 0
      vertex -4.5 27.5 0.799999
      vertex 4.5 27.5 0.799999
    endloop
  endfacet
  facet normal 0 1 0
    outer loop
      vertex -4.5 27.5 0.799999
      vertex 4.5 27.5 0
      vertex -4.5 27.5 0
    endloop
  endfacet
  facet normal -0.970016 0.243039 0
    outer loop
      vertex -14.3079 19.4509 0
      vertex -14.0694 20.4028 0.799999
      vertex -14.0694 20.4028 0
    endloop
  endfacet
  facet normal -0.970016 0.243039 0
    outer loop
      vertex -14.0694 20.4028 0.799999
      vertex -14.3079 19.4509 0
      vertex -14.3079 19.4509 0.799999
    endloop
  endfacet
  facet normal -0.740931 -0.671581 0
    outer loop
      vertex -2.47487 -2.47487 0
      vertex -2.70554 -2.22038 0.799999
      vertex -2.70554 -2.22038 0
    endloop
  endfacet
  facet normal -0.740931 -0.671581 0
    outer loop
      vertex -2.70554 -2.22038 0.799999
      vertex -2.47487 -2.47487 0
      vertex -2.47487 -2.47487 0.799999
    endloop
  endfacet
  facet normal 0.857727 -0.514106 0
    outer loop
      vertex 12.8147 11.9443 0.799999
      vertex 13.3192 12.786 0
      vertex 13.3192 12.786 0.799999
    endloop
  endfacet
  facet normal 0.857727 -0.514106 0
    outer loop
      vertex 13.3192 12.786 0
      vertex 12.8147 11.9443 0.799999
      vertex 12.8147 11.9443 0
    endloop
  endfacet
  facet normal 0.998793 0.0491143 0
    outer loop
      vertex 14.5 17.5 0.799999
      vertex 14.4518 18.4802 0
      vertex 14.4518 18.4802 0.799999
    endloop
  endfacet
  facet normal 0.998793 0.0491143 0
    outer loop
      vertex 14.4518 18.4802 0
      vertex 14.5 17.5 0.799999
      vertex 14.5 17.5 0
    endloop
  endfacet
  facet normal -0.242985 -0.97003 0
    outer loop
      vertex -1.016 -3.34929 0
      vertex -0.682816 -3.43275 0.799999
      vertex -1.016 -3.34929 0.799999
    endloop
  endfacet
  facet normal -0.242985 -0.97003 -0
    outer loop
      vertex -0.682816 -3.43275 0.799999
      vertex -1.016 -3.34929 0
      vertex -0.682816 -3.43275 0
    endloop
  endfacet
  facet normal 0.941548 -0.336879 0
    outer loop
      vertex 13.7388 13.6732 0.799999
      vertex 14.0694 14.5972 0
      vertex 14.0694 14.5972 0.799999
    endloop
  endfacet
  facet normal 0.941548 -0.336879 0
    outer loop
      vertex 14.0694 14.5972 0
      vertex 13.7388 13.6732 0.799999
      vertex 13.7388 13.6732 0
    endloop
  endfacet
  facet normal -0.336888 -0.941545 0
    outer loop
      vertex -1.33939 -3.23358 0
      vertex -1.016 -3.34929 0.799999
      vertex -1.33939 -3.23358 0.799999
    endloop
  endfacet
  facet normal -0.336888 -0.941545 -0
    outer loop
      vertex -1.016 -3.34929 0.799999
      vertex -1.33939 -3.23358 0
      vertex -1.016 -3.34929 0
    endloop
  endfacet
  facet normal -0.146637 0.98919 0
    outer loop
      vertex -5.48017 27.4518 0
      vertex -6.4509 27.3079 0.799999
      vertex -5.48017 27.4518 0.799999
    endloop
  endfacet
  facet normal -0.146637 0.98919 0
    outer loop
      vertex -6.4509 27.3079 0.799999
      vertex -5.48017 27.4518 0
      vertex -6.4509 27.3079 0
    endloop
  endfacet
  facet normal -0.814177 -0.580617 0
    outer loop
      vertex -2.91014 -1.9445 0
      vertex -12.8147 11.9443 0.799999
      vertex -12.8147 11.9443 0
    endloop
  endfacet
  facet normal -0.814177 -0.580617 0
    outer loop
      vertex -12.8147 11.9443 0.799999
      vertex -2.91014 -1.9445 0
      vertex -2.91014 -1.9445 0.799999
    endloop
  endfacet
  facet normal -0.427566 -0.903984 0
    outer loop
      vertex -1.64989 -3.08672 0
      vertex -1.33939 -3.23358 0.799999
      vertex -1.64989 -3.08672 0.799999
    endloop
  endfacet
  facet normal -0.427566 -0.903984 -0
    outer loop
      vertex -1.33939 -3.23358 0.799999
      vertex -1.64989 -3.08672 0
      vertex -1.33939 -3.23358 0
    endloop
  endfacet
  facet normal 0.146637 0.98919 -0
    outer loop
      vertex 6.4509 27.3079 0
      vertex 5.48017 27.4518 0.799999
      vertex 6.4509 27.3079 0.799999
    endloop
  endfacet
  facet normal 0.146637 0.98919 0
    outer loop
      vertex 5.48017 27.4518 0.799999
      vertex 6.4509 27.3079 0
      vertex 5.48017 27.4518 0
    endloop
  endfacet
  facet normal 0.998793 -0.0491143 0
    outer loop
      vertex 14.4518 16.5198 0.799999
      vertex 14.5 17.5 0
      vertex 14.5 17.5 0.799999
    endloop
  endfacet
  facet normal 0.998793 -0.0491143 0
    outer loop
      vertex 14.5 17.5 0
      vertex 14.4518 16.5198 0.799999
      vertex 14.4518 16.5198 0
    endloop
  endfacet
  facet normal -0.803192 0.59572 0
    outer loop
      vertex -12.8147 23.0557 0
      vertex -12.2301 23.8439 0.799999
      vertex -12.2301 23.8439 0
    endloop
  endfacet
  facet normal -0.803192 0.59572 0
    outer loop
      vertex -12.2301 23.8439 0.799999
      vertex -12.8147 23.0557 0
      vertex -12.8147 23.0557 0.799999
    endloop
  endfacet
  facet normal 0.903995 -0.427543 0
    outer loop
      vertex 13.3192 12.786 0.799999
      vertex 13.7388 13.6732 0
      vertex 13.7388 13.6732 0.799999
    endloop
  endfacet
  facet normal 0.903995 -0.427543 0
    outer loop
      vertex 13.7388 13.6732 0
      vertex 13.3192 12.786 0.799999
      vertex 13.3192 12.786 0
    endloop
  endfacet
  facet normal 0.903995 0.427543 0
    outer loop
      vertex 13.7388 21.3268 0.799999
      vertex 13.3192 22.214 0
      vertex 13.3192 22.214 0.799999
    endloop
  endfacet
  facet normal 0.903995 0.427543 0
    outer loop
      vertex 13.3192 22.214 0
      vertex 13.7388 21.3268 0.799999
      vertex 13.7388 21.3268 0
    endloop
  endfacet
  facet normal 0.941548 0.336879 0
    outer loop
      vertex 14.0694 20.4028 0.799999
      vertex 13.7388 21.3268 0
      vertex 13.7388 21.3268 0.799999
    endloop
  endfacet
  facet normal 0.941548 0.336879 0
    outer loop
      vertex 13.7388 21.3268 0
      vertex 14.0694 20.4028 0.799999
      vertex 14.0694 20.4028 0
    endloop
  endfacet
  facet normal 0.243027 0.970019 -0
    outer loop
      vertex 7.40285 27.0694 0
      vertex 6.4509 27.3079 0.799999
      vertex 7.40285 27.0694 0.799999
    endloop
  endfacet
  facet normal 0.243027 0.970019 0
    outer loop
      vertex 6.4509 27.3079 0.799999
      vertex 7.40285 27.0694 0
      vertex 6.4509 27.3079 0
    endloop
  endfacet
  facet normal -0.857727 0.514106 0
    outer loop
      vertex -13.3192 22.214 0
      vertex -12.8147 23.0557 0.799999
      vertex -12.8147 23.0557 0
    endloop
  endfacet
  facet normal -0.857727 0.514106 0
    outer loop
      vertex -12.8147 23.0557 0.799999
      vertex -13.3192 22.214 0
      vertex -13.3192 22.214 0.799999
    endloop
  endfacet
  facet normal -0.336885 0.941546 0
    outer loop
      vertex -7.40285 27.0694 0
      vertex -8.32683 26.7388 0.799999
      vertex -7.40285 27.0694 0.799999
    endloop
  endfacet
  facet normal -0.336885 0.941546 0
    outer loop
      vertex -8.32683 26.7388 0.799999
      vertex -7.40285 27.0694 0
      vertex -8.32683 26.7388 0
    endloop
  endfacet
  facet normal 0.98919 0.146641 0
    outer loop
      vertex 14.4518 18.4802 0.799999
      vertex 14.3079 19.4509 0
      vertex 14.3079 19.4509 0.799999
    endloop
  endfacet
  facet normal 0.98919 0.146641 0
    outer loop
      vertex 14.3079 19.4509 0
      vertex 14.4518 18.4802 0.799999
      vertex 14.4518 18.4802 0
    endloop
  endfacet
  facet normal 0.595687 -0.803217 0
    outer loop
      vertex 1.9445 -2.91014 0
      vertex 2.22038 -2.70554 0.799999
      vertex 1.9445 -2.91014 0.799999
    endloop
  endfacet
  facet normal 0.595687 -0.803217 0
    outer loop
      vertex 2.22038 -2.70554 0.799999
      vertex 1.9445 -2.91014 0
      vertex 2.22038 -2.70554 0
    endloop
  endfacet
  facet normal 0.336888 -0.941545 0
    outer loop
      vertex 1.016 -3.34929 0
      vertex 1.33939 -3.23358 0.799999
      vertex 1.016 -3.34929 0.799999
    endloop
  endfacet
  facet normal 0.336888 -0.941545 0
    outer loop
      vertex 1.33939 -3.23358 0.799999
      vertex 1.016 -3.34929 0
      vertex 1.33939 -3.23358 0
    endloop
  endfacet
  facet normal 0.741 0.671505 0
    outer loop
      vertex 12.2301 23.8439 0.799999
      vertex 11.5711 24.5711 0
      vertex 11.5711 24.5711 0.799999
    endloop
  endfacet
  facet normal 0.741 0.671505 0
    outer loop
      vertex 11.5711 24.5711 0
      vertex 12.2301 23.8439 0.799999
      vertex 12.2301 23.8439 0
    endloop
  endfacet
  facet normal -0.146736 -0.989176 0
    outer loop
      vertex -0.682816 -3.43275 0
      vertex -0.34306 -3.48315 0.799999
      vertex -0.682816 -3.43275 0.799999
    endloop
  endfacet
  facet normal -0.146736 -0.989176 -0
    outer loop
      vertex -0.34306 -3.48315 0.799999
      vertex -0.682816 -3.43275 0
      vertex -0.34306 -3.48315 0
    endloop
  endfacet
  facet normal 0.427566 -0.903984 0
    outer loop
      vertex 1.33939 -3.23358 0
      vertex 1.64989 -3.08672 0.799999
      vertex 1.33939 -3.23358 0.799999
    endloop
  endfacet
  facet normal 0.427566 -0.903984 0
    outer loop
      vertex 1.64989 -3.08672 0.799999
      vertex 1.33939 -3.23358 0
      vertex 1.64989 -3.08672 0
    endloop
  endfacet
  facet normal 0.740931 -0.671581 0
    outer loop
      vertex 2.47487 -2.47487 0.799999
      vertex 2.70554 -2.22038 0
      vertex 2.70554 -2.22038 0.799999
    endloop
  endfacet
  facet normal 0.740931 -0.671581 0
    outer loop
      vertex 2.70554 -2.22038 0
      vertex 2.47487 -2.47487 0.799999
      vertex 2.47487 -2.47487 0
    endloop
  endfacet
  facet normal 0.427567 0.903984 -0
    outer loop
      vertex 9.21397 26.3192 0
      vertex 8.32683 26.7388 0.799999
      vertex 9.21397 26.3192 0.799999
    endloop
  endfacet
  facet normal 0.427567 0.903984 0
    outer loop
      vertex 8.32683 26.7388 0.799999
      vertex 9.21397 26.3192 0
      vertex 8.32683 26.7388 0
    endloop
  endfacet
  facet normal -0.857727 -0.514106 0
    outer loop
      vertex -12.8147 11.9443 0
      vertex -13.3192 12.786 0.799999
      vertex -13.3192 12.786 0
    endloop
  endfacet
  facet normal -0.857727 -0.514106 0
    outer loop
      vertex -13.3192 12.786 0.799999
      vertex -12.8147 11.9443 0
      vertex -12.8147 11.9443 0.799999
    endloop
  endfacet
  facet normal -0.671581 -0.740931 0
    outer loop
      vertex -2.47487 -2.47487 0
      vertex -2.22038 -2.70554 0.799999
      vertex -2.47487 -2.47487 0.799999
    endloop
  endfacet
  facet normal -0.671581 -0.740931 -0
    outer loop
      vertex -2.22038 -2.70554 0.799999
      vertex -2.47487 -2.47487 0
      vertex -2.22038 -2.70554 0
    endloop
  endfacet
  facet normal -0.741 0.671505 0
    outer loop
      vertex -12.2301 23.8439 0
      vertex -11.5711 24.5711 0.799999
      vertex -11.5711 24.5711 0
    endloop
  endfacet
  facet normal -0.741 0.671505 0
    outer loop
      vertex -11.5711 24.5711 0.799999
      vertex -12.2301 23.8439 0
      vertex -12.2301 23.8439 0.799999
    endloop
  endfacet
  facet normal -0.941548 0.336879 0
    outer loop
      vertex -14.0694 20.4028 0
      vertex -13.7388 21.3268 0.799999
      vertex -13.7388 21.3268 0
    endloop
  endfacet
  facet normal -0.941548 0.336879 0
    outer loop
      vertex -13.7388 21.3268 0.799999
      vertex -14.0694 20.4028 0
      vertex -14.0694 20.4028 0.799999
    endloop
  endfacet
  facet normal 0.803192 0.59572 0
    outer loop
      vertex 12.8147 23.0557 0.799999
      vertex 12.2301 23.8439 0
      vertex 12.2301 23.8439 0.799999
    endloop
  endfacet
  facet normal 0.803192 0.59572 0
    outer loop
      vertex 12.2301 23.8439 0
      vertex 12.8147 23.0557 0.799999
      vertex 12.8147 23.0557 0
    endloop
  endfacet
  facet normal 0.0491158 0.998793 -0
    outer loop
      vertex 5.48017 27.4518 0
      vertex 4.5 27.5 0.799999
      vertex 5.48017 27.4518 0.799999
    endloop
  endfacet
  facet normal 0.0491158 0.998793 0
    outer loop
      vertex 4.5 27.5 0.799999
      vertex 5.48017 27.4518 0
      vertex 4.5 27.5 0
    endloop
  endfacet
  facet normal -0.671505 0.741 0
    outer loop
      vertex -10.8439 25.2301 0
      vertex -11.5711 24.5711 0.799999
      vertex -10.8439 25.2301 0.799999
    endloop
  endfacet
  facet normal -0.671505 0.741 0
    outer loop
      vertex -11.5711 24.5711 0.799999
      vertex -10.8439 25.2301 0
      vertex -11.5711 24.5711 0
    endloop
  endfacet
  facet normal 0.814177 -0.580617 0
    outer loop
      vertex 2.91014 -1.9445 0.799999
      vertex 12.8147 11.9443 0
      vertex 12.8147 11.9443 0.799999
    endloop
  endfacet
  facet normal 0.814177 -0.580617 0
    outer loop
      vertex 12.8147 11.9443 0
      vertex 2.91014 -1.9445 0.799999
      vertex 2.91014 -1.9445 0
    endloop
  endfacet
  facet normal -0.98919 0.146641 0
    outer loop
      vertex -14.4518 18.4802 0
      vertex -14.3079 19.4509 0.799999
      vertex -14.3079 19.4509 0
    endloop
  endfacet
  facet normal -0.98919 0.146641 0
    outer loop
      vertex -14.3079 19.4509 0.799999
      vertex -14.4518 18.4802 0
      vertex -14.4518 18.4802 0.799999
    endloop
  endfacet
  facet normal -0.998793 0.0491143 0
    outer loop
      vertex -14.5 17.5 0
      vertex -14.4518 18.4802 0.799999
      vertex -14.4518 18.4802 0
    endloop
  endfacet
  facet normal -0.998793 0.0491143 0
    outer loop
      vertex -14.4518 18.4802 0.799999
      vertex -14.5 17.5 0
      vertex -14.5 17.5 0.799999
    endloop
  endfacet
  facet normal 0.857727 0.514106 0
    outer loop
      vertex 13.3192 22.214 0.799999
      vertex 12.8147 23.0557 0
      vertex 12.8147 23.0557 0.799999
    endloop
  endfacet
  facet normal 0.857727 0.514106 0
    outer loop
      vertex 12.8147 23.0557 0
      vertex 13.3192 22.214 0.799999
      vertex 13.3192 22.214 0
    endloop
  endfacet
  facet normal 0.336885 0.941546 -0
    outer loop
      vertex 8.32683 26.7388 0
      vertex 7.40285 27.0694 0.799999
      vertex 8.32683 26.7388 0.799999
    endloop
  endfacet
  facet normal 0.336885 0.941546 0
    outer loop
      vertex 7.40285 27.0694 0.799999
      vertex 8.32683 26.7388 0
      vertex 7.40285 27.0694 0
    endloop
  endfacet
  facet normal -0.941548 -0.336879 0
    outer loop
      vertex -13.7388 13.6732 0
      vertex -14.0694 14.5972 0.799999
      vertex -14.0694 14.5972 0
    endloop
  endfacet
  facet normal -0.941548 -0.336879 0
    outer loop
      vertex -14.0694 14.5972 0.799999
      vertex -13.7388 13.6732 0
      vertex -13.7388 13.6732 0.799999
    endloop
  endfacet
  facet normal 0.514098 -0.857732 0
    outer loop
      vertex 1.64989 -3.08672 0
      vertex 1.9445 -2.91014 0.799999
      vertex 1.64989 -3.08672 0.799999
    endloop
  endfacet
  facet normal 0.514098 -0.857732 0
    outer loop
      vertex 1.9445 -2.91014 0.799999
      vertex 1.64989 -3.08672 0
      vertex 1.9445 -2.91014 0
    endloop
  endfacet
  facet normal -0.514093 0.857735 0
    outer loop
      vertex -9.21397 26.3192 0
      vertex -10.0557 25.8147 0.799999
      vertex -9.21397 26.3192 0.799999
    endloop
  endfacet
  facet normal -0.514093 0.857735 0
    outer loop
      vertex -10.0557 25.8147 0.799999
      vertex -9.21397 26.3192 0
      vertex -10.0557 25.8147 0
    endloop
  endfacet
  facet normal -0.427567 0.903984 0
    outer loop
      vertex -8.32683 26.7388 0
      vertex -9.21397 26.3192 0.799999
      vertex -8.32683 26.7388 0.799999
    endloop
  endfacet
  facet normal -0.427567 0.903984 0
    outer loop
      vertex -9.21397 26.3192 0.799999
      vertex -8.32683 26.7388 0
      vertex -9.21397 26.3192 0
    endloop
  endfacet
  facet normal 0.970016 0.243039 0
    outer loop
      vertex 14.3079 19.4509 0.799999
      vertex 14.0694 20.4028 0
      vertex 14.0694 20.4028 0.799999
    endloop
  endfacet
  facet normal 0.970016 0.243039 0
    outer loop
      vertex 14.0694 20.4028 0
      vertex 14.3079 19.4509 0.799999
      vertex 14.3079 19.4509 0
    endloop
  endfacet
  facet normal 0.970016 -0.243039 0
    outer loop
      vertex 14.0694 14.5972 0.799999
      vertex 14.3079 15.5491 0
      vertex 14.3079 15.5491 0.799999
    endloop
  endfacet
  facet normal 0.970016 -0.243039 0
    outer loop
      vertex 14.3079 15.5491 0
      vertex 14.0694 14.5972 0.799999
      vertex 14.0694 14.5972 0
    endloop
  endfacet
  facet normal -0.903995 0.427543 0
    outer loop
      vertex -13.7388 21.3268 0
      vertex -13.3192 22.214 0.799999
      vertex -13.3192 22.214 0
    endloop
  endfacet
  facet normal -0.903995 0.427543 0
    outer loop
      vertex -13.3192 22.214 0.799999
      vertex -13.7388 21.3268 0
      vertex -13.7388 21.3268 0.799999
    endloop
  endfacet
  facet normal 0.242985 -0.97003 0
    outer loop
      vertex 0.682816 -3.43275 0
      vertex 1.016 -3.34929 0.799999
      vertex 0.682816 -3.43275 0.799999
    endloop
  endfacet
  facet normal 0.242985 -0.97003 0
    outer loop
      vertex 1.016 -3.34929 0.799999
      vertex 0.682816 -3.43275 0
      vertex 1.016 -3.34929 0
    endloop
  endfacet
  facet normal -0.903995 -0.427543 0
    outer loop
      vertex -13.3192 12.786 0
      vertex -13.7388 13.6732 0.799999
      vertex -13.7388 13.6732 0
    endloop
  endfacet
  facet normal -0.903995 -0.427543 0
    outer loop
      vertex -13.7388 13.6732 0.799999
      vertex -13.3192 12.786 0
      vertex -13.3192 12.786 0.799999
    endloop
  endfacet
  facet normal -0.59572 0.803192 0
    outer loop
      vertex -10.0557 25.8147 0
      vertex -10.8439 25.2301 0.799999
      vertex -10.0557 25.8147 0.799999
    endloop
  endfacet
  facet normal -0.59572 0.803192 0
    outer loop
      vertex -10.8439 25.2301 0.799999
      vertex -10.0557 25.8147 0
      vertex -10.8439 25.2301 0
    endloop
  endfacet
  facet normal 0.671505 0.741 -0
    outer loop
      vertex 11.5711 24.5711 0
      vertex 10.8439 25.2301 0.799999
      vertex 11.5711 24.5711 0.799999
    endloop
  endfacet
  facet normal 0.671505 0.741 0
    outer loop
      vertex 10.8439 25.2301 0.799999
      vertex 11.5711 24.5711 0
      vertex 10.8439 25.2301 0
    endloop
  endfacet
  facet normal 0 0 1
    outer loop
      vertex -0.893723 19.1835 0.799999
      vertex -1.14479 19.1518 0.799999
      vertex -0.898468 18.6961 0.799999
    endloop
  endfacet
  facet normal 0 0 1
    outer loop
      vertex -1.14479 19.1518 0.799999
      vertex -0.893723 19.1835 0.799999
      vertex -1.00555 19.5949 0.799999
    endloop
  endfacet
  facet normal 0 0 1
    outer loop
      vertex -0.879486 19.6582 0.799999
      vertex -1.00555 19.5949 0.799999
      vertex -0.893723 19.1835 0.799999
    endloop
  endfacet
  facet normal 0 0 1
    outer loop
      vertex -1.00555 19.5949 0.799999
      vertex -0.879486 19.6582 0.799999
      vertex -0.855759 20.1202 0.799999
    endloop
  endfacet
  facet normal 0 0 1
    outer loop
      vertex 14.3079 19.4509 0.799999
      vertex 6.97903 18.6146 0.799999
      vertex 7.08162 17.647 0.799999
    endloop
  endfacet
  facet normal 0 0 1
    outer loop
      vertex 8.32683 26.7388 0.799999
      vertex 6.67126 19.4224 0.799999
      vertex 6.97903 18.6146 0.799999
    endloop
  endfacet
  facet normal 0 0 1
    outer loop
      vertex 5.45659 20.5437 0.799999
      vertex 7.40285 27.0694 0.799999
      vertex 6.4509 27.3079 0.799999
    endloop
  endfacet
  facet normal 0 0 1
    outer loop
      vertex 8.32683 26.7388 0.799999
      vertex 6.15833 20.0703 0.799999
      vertex 6.67126 19.4224 0.799999
    endloop
  endfacet
  facet normal 0 0 1
    outer loop
      vertex 4.58238 20.8277 0.799999
      vertex 6.4509 27.3079 0.799999
      vertex 5.48017 27.4518 0.799999
    endloop
  endfacet
  facet normal 0 0 1
    outer loop
      vertex 8.32683 26.7388 0.799999
      vertex 5.45659 20.5437 0.799999
      vertex 6.15833 20.0703 0.799999
    endloop
  endfacet
  facet normal 0 0 1
    outer loop
      vertex 6.4509 27.3079 0.799999
      vertex 4.58238 20.8277 0.799999
      vertex 5.45659 20.5437 0.799999
    endloop
  endfacet
  facet normal 0 0 1
    outer loop
      vertex 4.5 27.5 0.799999
      vertex 4.58238 20.8277 0.799999
      vertex 5.48017 27.4518 0.799999
    endloop
  endfacet
  facet normal 0 0 1
    outer loop
      vertex 4.5 27.5 0.799999
      vertex 3.53571 20.9224 0.799999
      vertex 4.58238 20.8277 0.799999
    endloop
  endfacet
  facet normal 0 0 1
    outer loop
      vertex 4.5 27.5 0.799999
      vertex 1.3237 20.9224 0.799999
      vertex 3.53571 20.9224 0.799999
    endloop
  endfacet
  facet normal 0 0 1
    outer loop
      vertex -0.0819855 14.2341 0.799999
      vertex 1.3237 14.2341 0.799999
      vertex 1.3237 20.9224 0.799999
    endloop
  endfacet
  facet normal 0 0 1
    outer loop
      vertex -2.91014 -1.9445 0.799999
      vertex 1.3237 14.2341 0.799999
      vertex -0.0819855 14.2341 0.799999
    endloop
  endfacet
  facet normal 0 0 1
    outer loop
      vertex 1.3237 14.2341 0.799999
      vertex -2.91014 -1.9445 0.799999
      vertex 1.016 -3.34929 0.799999
    endloop
  endfacet
  facet normal 0 0 1
    outer loop
      vertex 1.016 -3.34929 0.799999
      vertex -2.91014 -1.9445 0.799999
      vertex 0.682816 -3.43275 0.799999
    endloop
  endfacet
  facet normal 0 0 1
    outer loop
      vertex -0.0819855 14.2341 0.799999
      vertex 1.3237 20.9224 0.799999
      vertex -0.0819855 20.9224 0.799999
    endloop
  endfacet
  facet normal 0 0 1
    outer loop
      vertex 4.5 27.5 0.799999
      vertex -0.0819855 20.9224 0.799999
      vertex 1.3237 20.9224 0.799999
    endloop
  endfacet
  facet normal -0 0 1
    outer loop
      vertex -4.5 27.5 0.799999
      vertex -0.0819855 20.9224 0.799999
      vertex 4.5 27.5 0.799999
    endloop
  endfacet
  facet normal 0 0 1
    outer loop
      vertex -3.61369 16.2847 0.799999
      vertex -2.99181 16.2847 0.799999
      vertex -1.24496 20.9224 0.799999
    endloop
  endfacet
  facet normal 0 0 1
    outer loop
      vertex -3.28009 15.3699 0.799999
      vertex -3.34024 15.3361 0.799999
      vertex -3.31465 15.2214 0.799999
    endloop
  endfacet
  facet normal -0 0 1
    outer loop
      vertex -3.37903 15.4904 0.799999
      vertex -3.28009 15.3699 0.799999
      vertex -3.22708 15.5621 0.799999
    endloop
  endfacet
  facet normal -0 0 1
    outer loop
      vertex -3.431 15.6842 0.799999
      vertex -3.22708 15.5621 0.799999
      vertex -3.15561 15.7982 0.799999
    endloop
  endfacet
  facet normal -0 0 1
    outer loop
      vertex -3.49031 15.8933 0.799999
      vertex -3.15561 15.7982 0.799999
      vertex -3.08362 16.0242 0.799999
    endloop
  endfacet
  facet normal -0 0 1
    outer loop
      vertex -3.55121 16.0935 0.799999
      vertex -3.08362 16.0242 0.799999
      vertex -3.02902 16.1864 0.799999
    endloop
  endfacet
  facet normal 0 0 1
    outer loop
      vertex -3.28009 15.3699 0.799999
      vertex -3.37903 15.4904 0.799999
      vertex -3.34024 15.3361 0.799999
    endloop
  endfacet
  facet normal 0 0 1
    outer loop
      vertex -2.99181 16.2847 0.799999
      vertex -3.61369 16.2847 0.799999
      vertex -3.02902 16.1864 0.799999
    endloop
  endfacet
  facet normal 0 0 1
    outer loop
      vertex -3.22708 15.5621 0.799999
      vertex -3.431 15.6842 0.799999
      vertex -3.37903 15.4904 0.799999
    endloop
  endfacet
  facet normal 0 0 1
    outer loop
      vertex -3.15561 15.7982 0.799999
      vertex -3.49031 15.8933 0.799999
      vertex -3.431 15.6842 0.799999
    endloop
  endfacet
  facet normal 0 0 1
    outer loop
      vertex -3.08362 16.0242 0.799999
      vertex -3.55121 16.0935 0.799999
      vertex -3.49031 15.8933 0.799999
    endloop
  endfacet
  facet normal 0 0 1
    outer loop
      vertex -3.02902 16.1864 0.799999
      vertex -3.61369 16.2847 0.799999
      vertex -3.55121 16.0935 0.799999
    endloop
  endfacet
  facet normal 0 0 1
    outer loop
      vertex -0.0819855 20.9224 0.799999
      vertex -4.5 27.5 0.799999
      vertex -1.24496 20.9224 0.799999
    endloop
  endfacet
  facet normal 0 0 1
    outer loop
      vertex -5.3938 20.9224 0.799999
      vertex -1.24496 20.9224 0.799999
      vertex -4.5 27.5 0.799999
    endloop
  endfacet
  facet normal 0 0 1
    outer loop
      vertex -1.24496 20.9224 0.799999
      vertex -5.3938 20.9224 0.799999
      vertex -3.61369 16.2847 0.799999
    endloop
  endfacet
  facet normal -0 0 1
    outer loop
      vertex -5.48017 27.4518 0.799999
      vertex -5.3938 20.9224 0.799999
      vertex -4.5 27.5 0.799999
    endloop
  endfacet
  facet normal -0 0 1
    outer loop
      vertex -6.4509 27.3079 0.799999
      vertex -5.3938 20.9224 0.799999
      vertex -5.48017 27.4518 0.799999
    endloop
  endfacet
  facet normal 0 0 1
    outer loop
      vertex -6.4509 27.3079 0.799999
      vertex -6.58519 20.9224 0.799999
      vertex -5.3938 20.9224 0.799999
    endloop
  endfacet
  facet normal -0 0 1
    outer loop
      vertex -8.32683 26.7388 0.799999
      vertex -6.58519 20.9224 0.799999
      vertex -7.40285 27.0694 0.799999
    endloop
  endfacet
  facet normal -0 0 1
    outer loop
      vertex -7.40285 27.0694 0.799999
      vertex -6.58519 20.9224 0.799999
      vertex -6.4509 27.3079 0.799999
    endloop
  endfacet
  facet normal -0 0 1
    outer loop
      vertex 7.08162 17.647 0.799999
      vertex 14.5 17.5 0.799999
      vertex 14.4518 18.4802 0.799999
    endloop
  endfacet
  facet normal 0 0 1
    outer loop
      vertex 7.08162 17.647 0.799999
      vertex 14.4518 18.4802 0.799999
      vertex 14.3079 19.4509 0.799999
    endloop
  endfacet
  facet normal 0 0 1
    outer loop
      vertex 14.5 17.5 0.799999
      vertex 7.08162 17.647 0.799999
      vertex 14.4518 16.5198 0.799999
    endloop
  endfacet
  facet normal 0 0 1
    outer loop
      vertex 6.97903 18.6146 0.799999
      vertex 14.3079 19.4509 0.799999
      vertex 14.0694 20.4028 0.799999
    endloop
  endfacet
  facet normal -0 0 1
    outer loop
      vertex 7.03679 16.9859 0.799999
      vertex 14.4518 16.5198 0.799999
      vertex 7.08162 17.647 0.799999
    endloop
  endfacet
  facet normal 0 0 1
    outer loop
      vertex 6.97903 18.6146 0.799999
      vertex 14.0694 20.4028 0.799999
      vertex 13.7388 21.3268 0.799999
    endloop
  endfacet
  facet normal 0 0 1
    outer loop
      vertex 14.4518 16.5198 0.799999
      vertex 7.03679 16.9859 0.799999
      vertex 14.3079 15.5491 0.799999
    endloop
  endfacet
  facet normal 0 0 1
    outer loop
      vertex 6.97903 18.6146 0.799999
      vertex 13.7388 21.3268 0.799999
      vertex 13.3192 22.214 0.799999
    endloop
  endfacet
  facet normal 0 0 1
    outer loop
      vertex 14.3079 15.5491 0.799999
      vertex 7.03679 16.9859 0.799999
      vertex 14.0694 14.5972 0.799999
    endloop
  endfacet
  facet normal 0 0 1
    outer loop
      vertex 6.97903 18.6146 0.799999
      vertex 13.3192 22.214 0.799999
      vertex 12.8147 23.0557 0.799999
    endloop
  endfacet
  facet normal -0 0 1
    outer loop
      vertex 6.9023 16.3823 0.799999
      vertex 14.0694 14.5972 0.799999
      vertex 7.03679 16.9859 0.799999
    endloop
  endfacet
  facet normal 0 0 1
    outer loop
      vertex 6.97903 18.6146 0.799999
      vertex 12.8147 23.0557 0.799999
      vertex 12.2301 23.8439 0.799999
    endloop
  endfacet
  facet normal 0 0 1
    outer loop
      vertex 6.97903 18.6146 0.799999
      vertex 12.2301 23.8439 0.799999
      vertex 11.5711 24.5711 0.799999
    endloop
  endfacet
  facet normal 0 0 1
    outer loop
      vertex 6.97903 18.6146 0.799999
      vertex 11.5711 24.5711 0.799999
      vertex 10.8439 25.2301 0.799999
    endloop
  endfacet
  facet normal 0 0 1
    outer loop
      vertex 6.97903 18.6146 0.799999
      vertex 10.8439 25.2301 0.799999
      vertex 10.0557 25.8147 0.799999
    endloop
  endfacet
  facet normal 0 0 1
    outer loop
      vertex 6.97903 18.6146 0.799999
      vertex 10.0557 25.8147 0.799999
      vertex 9.21397 26.3192 0.799999
    endloop
  endfacet
  facet normal 0 0 1
    outer loop
      vertex 6.97903 18.6146 0.799999
      vertex 9.21397 26.3192 0.799999
      vertex 8.32683 26.7388 0.799999
    endloop
  endfacet
  facet normal 0 0 1
    outer loop
      vertex 5.45659 20.5437 0.799999
      vertex 8.32683 26.7388 0.799999
      vertex 7.40285 27.0694 0.799999
    endloop
  endfacet
  facet normal 0 0 1
    outer loop
      vertex 14.0694 14.5972 0.799999
      vertex 6.9023 16.3823 0.799999
      vertex 13.7388 13.6732 0.799999
    endloop
  endfacet
  facet normal 0 0 1
    outer loop
      vertex 13.7388 13.6732 0.799999
      vertex 6.9023 16.3823 0.799999
      vertex 13.3192 12.786 0.799999
    endloop
  endfacet
  facet normal -0 0 1
    outer loop
      vertex 6.67813 15.8361 0.799999
      vertex 13.3192 12.786 0.799999
      vertex 6.9023 16.3823 0.799999
    endloop
  endfacet
  facet normal 0 0 1
    outer loop
      vertex 13.3192 12.786 0.799999
      vertex 6.67813 15.8361 0.799999
      vertex 12.8147 11.9443 0.799999
    endloop
  endfacet
  facet normal -0 0 1
    outer loop
      vertex 6.3717 15.359 0.799999
      vertex 12.8147 11.9443 0.799999
      vertex 6.67813 15.8361 0.799999
    endloop
  endfacet
  facet normal -0 0 1
    outer loop
      vertex 5.99037 14.9627 0.799999
      vertex 12.8147 11.9443 0.799999
      vertex 6.3717 15.359 0.799999
    endloop
  endfacet
  facet normal -0 0 1
    outer loop
      vertex 5.53413 14.647 0.799999
      vertex 12.8147 11.9443 0.799999
      vertex 5.99037 14.9627 0.799999
    endloop
  endfacet
  facet normal -0 0 1
    outer loop
      vertex 5.01514 14.4176 0.799999
      vertex 12.8147 11.9443 0.799999
      vertex 5.53413 14.647 0.799999
    endloop
  endfacet
  facet normal -0 0 1
    outer loop
      vertex 4.44553 14.28 0.799999
      vertex 12.8147 11.9443 0.799999
      vertex 5.01514 14.4176 0.799999
    endloop
  endfacet
  facet normal 0 0 1
    outer loop
      vertex 2.91014 -1.9445 0.799999
      vertex 4.44553 14.28 0.799999
      vertex 3.82529 14.2341 0.799999
    endloop
  endfacet
  facet normal 0 0 1
    outer loop
      vertex 4.44553 14.28 0.799999
      vertex 2.91014 -1.9445 0.799999
      vertex 12.8147 11.9443 0.799999
    endloop
  endfacet
  facet normal -0 0 1
    outer loop
      vertex 1.3237 14.2341 0.799999
      vertex 2.91014 -1.9445 0.799999
      vertex 3.82529 14.2341 0.799999
    endloop
  endfacet
  facet normal 0 0 1
    outer loop
      vertex 1.016 -3.34929 0.799999
      vertex 2.91014 -1.9445 0.799999
      vertex 1.3237 14.2341 0.799999
    endloop
  endfacet
  facet normal 0 0 1
    outer loop
      vertex 2.91014 -1.9445 0.799999
      vertex 1.016 -3.34929 0.799999
      vertex 2.70554 -2.22038 0.799999
    endloop
  endfacet
  facet normal 0 0 1
    outer loop
      vertex 2.70554 -2.22038 0.799999
      vertex 1.016 -3.34929 0.799999
      vertex 2.47487 -2.47487 0.799999
    endloop
  endfacet
  facet normal 0 0 1
    outer loop
      vertex 2.47487 -2.47487 0.799999
      vertex 1.016 -3.34929 0.799999
      vertex 2.22038 -2.70554 0.799999
    endloop
  endfacet
  facet normal 0 0 1
    outer loop
      vertex 2.22038 -2.70554 0.799999
      vertex 1.016 -3.34929 0.799999
      vertex 1.9445 -2.91014 0.799999
    endloop
  endfacet
  facet normal 0 0 1
    outer loop
      vertex 1.9445 -2.91014 0.799999
      vertex 1.016 -3.34929 0.799999
      vertex 1.64989 -3.08672 0.799999
    endloop
  endfacet
  facet normal 0 0 1
    outer loop
      vertex 1.64989 -3.08672 0.799999
      vertex 1.016 -3.34929 0.799999
      vertex 1.33939 -3.23358 0.799999
    endloop
  endfacet
  facet normal 0 0 1
    outer loop
      vertex 0.682816 -3.43275 0.799999
      vertex -2.91014 -1.9445 0.799999
      vertex 0.34306 -3.48315 0.799999
    endloop
  endfacet
  facet normal 0 0 1
    outer loop
      vertex 0.34306 -3.48315 0.799999
      vertex -2.91014 -1.9445 0.799999
      vertex 0 -3.5 0.799999
    endloop
  endfacet
  facet normal 0 0 1
    outer loop
      vertex 0 -3.5 0.799999
      vertex -2.91014 -1.9445 0.799999
      vertex -0.34306 -3.48315 0.799999
    endloop
  endfacet
  facet normal 0 0 1
    outer loop
      vertex -2.91014 -1.9445 0.799999
      vertex -0.0819855 14.2341 0.799999
      vertex -0.898468 14.2341 0.799999
    endloop
  endfacet
  facet normal -0 0 1
    outer loop
      vertex -1.27345 18.7911 0.799999
      vertex -0.898468 18.6961 0.799999
      vertex -1.14479 19.1518 0.799999
    endloop
  endfacet
  facet normal 0 0 1
    outer loop
      vertex -0.898468 18.6961 0.799999
      vertex -1.27345 18.7911 0.799999
      vertex -0.898468 14.2341 0.799999
    endloop
  endfacet
  facet normal 0 0 1
    outer loop
      vertex -3.00133 14.2341 0.799999
      vertex -0.898468 14.2341 0.799999
      vertex -1.27345 18.7911 0.799999
    endloop
  endfacet
  facet normal 0 -0 1
    outer loop
      vertex -2.91014 -1.9445 0.799999
      vertex -0.898468 14.2341 0.799999
      vertex -3.00133 14.2341 0.799999
    endloop
  endfacet
  facet normal 0 0 1
    outer loop
      vertex -0.34306 -3.48315 0.799999
      vertex -2.91014 -1.9445 0.799999
      vertex -0.682816 -3.43275 0.799999
    endloop
  endfacet
  facet normal 0 0 1
    outer loop
      vertex -0.682816 -3.43275 0.799999
      vertex -2.91014 -1.9445 0.799999
      vertex -1.016 -3.34929 0.799999
    endloop
  endfacet
  facet normal 0 0 1
    outer loop
      vertex -1.016 -3.34929 0.799999
      vertex -2.91014 -1.9445 0.799999
      vertex -1.33939 -3.23358 0.799999
    endloop
  endfacet
  facet normal 0 0 1
    outer loop
      vertex -1.33939 -3.23358 0.799999
      vertex -2.91014 -1.9445 0.799999
      vertex -1.64989 -3.08672 0.799999
    endloop
  endfacet
  facet normal 0 0 1
    outer loop
      vertex -1.64989 -3.08672 0.799999
      vertex -2.91014 -1.9445 0.799999
      vertex -1.9445 -2.91014 0.799999
    endloop
  endfacet
  facet normal 0 0 1
    outer loop
      vertex -1.9445 -2.91014 0.799999
      vertex -2.91014 -1.9445 0.799999
      vertex -2.22038 -2.70554 0.799999
    endloop
  endfacet
  facet normal 0 0 1
    outer loop
      vertex -2.22038 -2.70554 0.799999
      vertex -2.91014 -1.9445 0.799999
      vertex -2.47487 -2.47487 0.799999
    endloop
  endfacet
  facet normal 0 0 1
    outer loop
      vertex -2.47487 -2.47487 0.799999
      vertex -2.91014 -1.9445 0.799999
      vertex -2.70554 -2.22038 0.799999
    endloop
  endfacet
  facet normal -0 0 1
    outer loop
      vertex -3.63742 14.2341 0.799999
      vertex -2.91014 -1.9445 0.799999
      vertex -3.00133 14.2341 0.799999
    endloop
  endfacet
  facet normal 0 0 1
    outer loop
      vertex -5.77823 14.2341 0.799999
      vertex -3.63742 14.2341 0.799999
      vertex -5.38904 18.7911 0.799999
    endloop
  endfacet
  facet normal 0 0 1
    outer loop
      vertex -5.77823 18.6961 0.799999
      vertex -5.38904 18.7911 0.799999
      vertex -5.65482 19.598 0.799999
    endloop
  endfacet
  facet normal 0 0 1
    outer loop
      vertex -5.38904 18.7911 0.799999
      vertex -5.77823 18.6961 0.799999
      vertex -5.77823 14.2341 0.799999
    endloop
  endfacet
  facet normal 0 0 1
    outer loop
      vertex -3.63742 14.2341 0.799999
      vertex -5.77823 14.2341 0.799999
      vertex -2.91014 -1.9445 0.799999
    endloop
  endfacet
  facet normal -0 0 1
    outer loop
      vertex -6.58519 14.2341 0.799999
      vertex -2.91014 -1.9445 0.799999
      vertex -5.77823 14.2341 0.799999
    endloop
  endfacet
  facet normal -0 0 1
    outer loop
      vertex -9.21397 26.3192 0.799999
      vertex -6.58519 20.9224 0.799999
      vertex -8.32683 26.7388 0.799999
    endloop
  endfacet
  facet normal -0 0 1
    outer loop
      vertex -10.0557 25.8147 0.799999
      vertex -6.58519 20.9224 0.799999
      vertex -9.21397 26.3192 0.799999
    endloop
  endfacet
  facet normal -0 0 1
    outer loop
      vertex -10.8439 25.2301 0.799999
      vertex -6.58519 20.9224 0.799999
      vertex -10.0557 25.8147 0.799999
    endloop
  endfacet
  facet normal -0 0 1
    outer loop
      vertex -11.5711 24.5711 0.799999
      vertex -6.58519 20.9224 0.799999
      vertex -10.8439 25.2301 0.799999
    endloop
  endfacet
  facet normal -0 0 1
    outer loop
      vertex -12.2301 23.8439 0.799999
      vertex -6.58519 20.9224 0.799999
      vertex -11.5711 24.5711 0.799999
    endloop
  endfacet
  facet normal -0 0 1
    outer loop
      vertex -12.8147 23.0557 0.799999
      vertex -6.58519 20.9224 0.799999
      vertex -12.2301 23.8439 0.799999
    endloop
  endfacet
  facet normal -0 0 1
    outer loop
      vertex -13.3192 22.214 0.799999
      vertex -6.58519 20.9224 0.799999
      vertex -12.8147 23.0557 0.799999
    endloop
  endfacet
  facet normal -0 0 1
    outer loop
      vertex -13.7388 21.3268 0.799999
      vertex -6.58519 20.9224 0.799999
      vertex -13.3192 22.214 0.799999
    endloop
  endfacet
  facet normal 0 0 1
    outer loop
      vertex -6.58519 14.2341 0.799999
      vertex -12.8147 11.9443 0.799999
      vertex -2.91014 -1.9445 0.799999
    endloop
  endfacet
  facet normal 0 0 1
    outer loop
      vertex -14.0694 20.4028 0.799999
      vertex -6.58519 20.9224 0.799999
      vertex -13.7388 21.3268 0.799999
    endloop
  endfacet
  facet normal 0 0 1
    outer loop
      vertex -6.58519 14.2341 0.799999
      vertex -13.3192 12.786 0.799999
      vertex -12.8147 11.9443 0.799999
    endloop
  endfacet
  facet normal 0 0 1
    outer loop
      vertex -14.3079 19.4509 0.799999
      vertex -6.58519 20.9224 0.799999
      vertex -14.0694 20.4028 0.799999
    endloop
  endfacet
  facet normal 0 0 1
    outer loop
      vertex -6.58519 14.2341 0.799999
      vertex -13.7388 13.6732 0.799999
      vertex -13.3192 12.786 0.799999
    endloop
  endfacet
  facet normal 0 0 1
    outer loop
      vertex -14.4518 18.4802 0.799999
      vertex -6.58519 20.9224 0.799999
      vertex -14.3079 19.4509 0.799999
    endloop
  endfacet
  facet normal 0 0 1
    outer loop
      vertex -6.58519 14.2341 0.799999
      vertex -14.0694 14.5972 0.799999
      vertex -13.7388 13.6732 0.799999
    endloop
  endfacet
  facet normal 0 0 1
    outer loop
      vertex -14.5 17.5 0.799999
      vertex -6.58519 20.9224 0.799999
      vertex -14.4518 18.4802 0.799999
    endloop
  endfacet
  facet normal 0 0 1
    outer loop
      vertex -6.58519 14.2341 0.799999
      vertex -14.3079 15.5491 0.799999
      vertex -14.0694 14.5972 0.799999
    endloop
  endfacet
  facet normal 0 0 1
    outer loop
      vertex -6.58519 20.9224 0.799999
      vertex -14.5 17.5 0.799999
      vertex -6.58519 14.2341 0.799999
    endloop
  endfacet
  facet normal 0 0 1
    outer loop
      vertex -6.58519 14.2341 0.799999
      vertex -14.4518 16.5198 0.799999
      vertex -14.3079 15.5491 0.799999
    endloop
  endfacet
  facet normal 0 0 1
    outer loop
      vertex -6.58519 14.2341 0.799999
      vertex -14.5 17.5 0.799999
      vertex -14.4518 16.5198 0.799999
    endloop
  endfacet
  facet normal 0 0 1
    outer loop
      vertex -5.65482 19.598 0.799999
      vertex -5.79727 19.5933 0.799999
      vertex -5.77823 18.6961 0.799999
    endloop
  endfacet
  facet normal 0 -0 1
    outer loop
      vertex -5.79727 19.5933 0.799999
      vertex -5.65482 19.598 0.799999
      vertex -5.81148 20.1202 0.799999
    endloop
  endfacet
  facet normal 0 0 1
    outer loop
      vertex 4.30972 20.1236 0.799999
      vertex 6.17021 17.647 0.799999
      vertex 6.09453 18.4105 0.799999
    endloop
  endfacet
  facet normal 0 -0 1
    outer loop
      vertex 3.72086 14.9603 0.799999
      vertex 6.17021 17.647 0.799999
      vertex 3.51672 20.1962 0.799999
    endloop
  endfacet
  facet normal 0 0 1
    outer loop
      vertex 6.17021 17.647 0.799999
      vertex 3.72086 14.9603 0.799999
      vertex 6.13699 17.1207 0.799999
    endloop
  endfacet
  facet normal 0 0 1
    outer loop
      vertex 4.96716 19.9061 0.799999
      vertex 6.09453 18.4105 0.799999
      vertex 5.86748 19.0426 0.799999
    endloop
  endfacet
  facet normal 0 0 1
    outer loop
      vertex 6.17021 17.647 0.799999
      vertex 4.30972 20.1236 0.799999
      vertex 3.51672 20.1962 0.799999
    endloop
  endfacet
  facet normal 0 0 1
    outer loop
      vertex 4.96716 19.9061 0.799999
      vertex 5.86748 19.0426 0.799999
      vertex 5.48904 19.5434 0.799999
    endloop
  endfacet
  facet normal 0 0 1
    outer loop
      vertex 6.13699 17.1207 0.799999
      vertex 3.72086 14.9603 0.799999
      vertex 6.03731 16.6429 0.799999
    endloop
  endfacet
  facet normal 0 0 1
    outer loop
      vertex 6.03731 16.6429 0.799999
      vertex 4.19159 14.9962 0.799999
      vertex 5.87119 16.2135 0.799999
    endloop
  endfacet
  facet normal 0 0 1
    outer loop
      vertex 6.09453 18.4105 0.799999
      vertex 4.96716 19.9061 0.799999
      vertex 4.30972 20.1236 0.799999
    endloop
  endfacet
  facet normal 0 -0 1
    outer loop
      vertex 4.62276 15.1038 0.799999
      vertex 5.87119 16.2135 0.799999
      vertex 4.19159 14.9962 0.799999
    endloop
  endfacet
  facet normal 0 0 1
    outer loop
      vertex 5.64307 15.8401 0.799999
      vertex 5.01437 15.2831 0.799999
      vertex 5.35747 15.53 0.799999
    endloop
  endfacet
  facet normal 0 0 1
    outer loop
      vertex 5.64307 15.8401 0.799999
      vertex 4.62276 15.1038 0.799999
      vertex 5.01437 15.2831 0.799999
    endloop
  endfacet
  facet normal 0 0 1
    outer loop
      vertex 5.87119 16.2135 0.799999
      vertex 4.62276 15.1038 0.799999
      vertex 5.64307 15.8401 0.799999
    endloop
  endfacet
  facet normal 0 -0 1
    outer loop
      vertex 4.19159 14.9962 0.799999
      vertex 6.03731 16.6429 0.799999
      vertex 3.72086 14.9603 0.799999
    endloop
  endfacet
  facet normal 0 0 1
    outer loop
      vertex 2.23033 14.9603 0.799999
      vertex 3.51672 20.1962 0.799999
      vertex 2.23033 20.1962 0.799999
    endloop
  endfacet
  facet normal 0 0 1
    outer loop
      vertex 3.51672 20.1962 0.799999
      vertex 2.23033 14.9603 0.799999
      vertex 3.72086 14.9603 0.799999
    endloop
  endfacet
  facet normal -0.803217 -0.595687 0
    outer loop
      vertex -2.70554 -2.22038 0
      vertex -2.91014 -1.9445 0.799999
      vertex -2.91014 -1.9445 0
    endloop
  endfacet
  facet normal -0.803217 -0.595687 0
    outer loop
      vertex -2.91014 -1.9445 0.799999
      vertex -2.70554 -2.22038 0
      vertex -2.70554 -2.22038 0.799999
    endloop
  endfacet
  facet normal 0.803217 -0.595687 0
    outer loop
      vertex 2.70554 -2.22038 0.799999
      vertex 2.91014 -1.9445 0
      vertex 2.91014 -1.9445 0.799999
    endloop
  endfacet
  facet normal 0.803217 -0.595687 0
    outer loop
      vertex 2.91014 -1.9445 0
      vertex 2.70554 -2.22038 0.799999
      vertex 2.70554 -2.22038 0
    endloop
  endfacet
  facet normal 0.514093 0.857735 -0
    outer loop
      vertex 10.0557 25.8147 0
      vertex 9.21397 26.3192 0.799999
      vertex 10.0557 25.8147 0.799999
    endloop
  endfacet
  facet normal 0.514093 0.857735 0
    outer loop
      vertex 9.21397 26.3192 0.799999
      vertex 10.0557 25.8147 0
      vertex 9.21397 26.3192 0
    endloop
  endfacet
  facet normal 0.146736 -0.989176 0
    outer loop
      vertex 0.34306 -3.48315 0
      vertex 0.682816 -3.43275 0.799999
      vertex 0.34306 -3.48315 0.799999
    endloop
  endfacet
  facet normal 0.146736 -0.989176 0
    outer loop
      vertex 0.682816 -3.43275 0.799999
      vertex 0.34306 -3.48315 0
      vertex 0.682816 -3.43275 0
    endloop
  endfacet
  facet normal 0 0 -1
    outer loop
      vertex 14.4518 16.5198 0
      vertex 14.4518 18.4802 0
      vertex 14.5 17.5 0
    endloop
  endfacet
  facet normal 0 0 -1
    outer loop
      vertex 14.3079 15.5491 0
      vertex 14.4518 18.4802 0
      vertex 14.4518 16.5198 0
    endloop
  endfacet
  facet normal 0 0 -1
    outer loop
      vertex 14.3079 15.5491 0
      vertex 14.3079 19.4509 0
      vertex 14.4518 18.4802 0
    endloop
  endfacet
  facet normal 0 0 -1
    outer loop
      vertex 14.0694 14.5972 0
      vertex 14.3079 19.4509 0
      vertex 14.3079 15.5491 0
    endloop
  endfacet
  facet normal 0 0 -1
    outer loop
      vertex 14.0694 14.5972 0
      vertex 14.0694 20.4028 0
      vertex 14.3079 19.4509 0
    endloop
  endfacet
  facet normal 0 0 -1
    outer loop
      vertex 13.7388 13.6732 0
      vertex 14.0694 20.4028 0
      vertex 14.0694 14.5972 0
    endloop
  endfacet
  facet normal 0 0 -1
    outer loop
      vertex 13.7388 13.6732 0
      vertex 13.7388 21.3268 0
      vertex 14.0694 20.4028 0
    endloop
  endfacet
  facet normal 0 0 -1
    outer loop
      vertex 13.3192 12.786 0
      vertex 13.7388 21.3268 0
      vertex 13.7388 13.6732 0
    endloop
  endfacet
  facet normal 0 0 -1
    outer loop
      vertex 13.3192 12.786 0
      vertex 13.3192 22.214 0
      vertex 13.7388 21.3268 0
    endloop
  endfacet
  facet normal 0 0 -1
    outer loop
      vertex 12.8147 11.9443 0
      vertex 13.3192 22.214 0
      vertex 13.3192 12.786 0
    endloop
  endfacet
  facet normal 0 0 -1
    outer loop
      vertex 12.8147 11.9443 0
      vertex 12.8147 23.0557 0
      vertex 13.3192 22.214 0
    endloop
  endfacet
  facet normal 0 0 -1
    outer loop
      vertex 12.8147 11.9443 0
      vertex 12.2301 23.8439 0
      vertex 12.8147 23.0557 0
    endloop
  endfacet
  facet normal 0 0 -1
    outer loop
      vertex 12.8147 11.9443 0
      vertex 11.5711 24.5711 0
      vertex 12.2301 23.8439 0
    endloop
  endfacet
  facet normal 0 0 -1
    outer loop
      vertex 12.8147 11.9443 0
      vertex 10.8439 25.2301 0
      vertex 11.5711 24.5711 0
    endloop
  endfacet
  facet normal 0 0 -1
    outer loop
      vertex 12.8147 11.9443 0
      vertex 10.0557 25.8147 0
      vertex 10.8439 25.2301 0
    endloop
  endfacet
  facet normal 0 0 -1
    outer loop
      vertex 12.8147 11.9443 0
      vertex 9.21397 26.3192 0
      vertex 10.0557 25.8147 0
    endloop
  endfacet
  facet normal 0 0 -1
    outer loop
      vertex 12.8147 11.9443 0
      vertex 8.32683 26.7388 0
      vertex 9.21397 26.3192 0
    endloop
  endfacet
  facet normal 0 0 -1
    outer loop
      vertex 12.8147 11.9443 0
      vertex 7.40285 27.0694 0
      vertex 8.32683 26.7388 0
    endloop
  endfacet
  facet normal 0 0 -1
    outer loop
      vertex 12.8147 11.9443 0
      vertex 6.4509 27.3079 0
      vertex 7.40285 27.0694 0
    endloop
  endfacet
  facet normal 0 0 -1
    outer loop
      vertex 12.8147 11.9443 0
      vertex 5.48017 27.4518 0
      vertex 6.4509 27.3079 0
    endloop
  endfacet
  facet normal 0 0 -1
    outer loop
      vertex 12.8147 11.9443 0
      vertex 4.5 27.5 0
      vertex 5.48017 27.4518 0
    endloop
  endfacet
  facet normal 0 0 -1
    outer loop
      vertex -12.8147 11.9443 0
      vertex 12.8147 11.9443 0
      vertex 2.91014 -1.9445 0
    endloop
  endfacet
  facet normal 0 0 -1
    outer loop
      vertex -2.91014 -1.9445 0
      vertex 2.91014 -1.9445 0
      vertex 2.70554 -2.22038 0
    endloop
  endfacet
  facet normal 0 0 -1
    outer loop
      vertex -2.91014 -1.9445 0
      vertex 2.70554 -2.22038 0
      vertex 2.47487 -2.47487 0
    endloop
  endfacet
  facet normal 0 0 -1
    outer loop
      vertex -2.91014 -1.9445 0
      vertex 2.47487 -2.47487 0
      vertex 2.22038 -2.70554 0
    endloop
  endfacet
  facet normal 0 0 -1
    outer loop
      vertex -2.91014 -1.9445 0
      vertex 2.22038 -2.70554 0
      vertex 1.9445 -2.91014 0
    endloop
  endfacet
  facet normal 0 0 -1
    outer loop
      vertex -2.91014 -1.9445 0
      vertex 1.9445 -2.91014 0
      vertex 1.64989 -3.08672 0
    endloop
  endfacet
  facet normal 0 0 -1
    outer loop
      vertex -2.91014 -1.9445 0
      vertex 1.64989 -3.08672 0
      vertex 1.33939 -3.23358 0
    endloop
  endfacet
  facet normal 0 0 -1
    outer loop
      vertex -2.91014 -1.9445 0
      vertex 1.33939 -3.23358 0
      vertex 1.016 -3.34929 0
    endloop
  endfacet
  facet normal 0 0 -1
    outer loop
      vertex -2.91014 -1.9445 0
      vertex 1.016 -3.34929 0
      vertex 0.682816 -3.43275 0
    endloop
  endfacet
  facet normal 0 0 -1
    outer loop
      vertex -2.91014 -1.9445 0
      vertex 0.682816 -3.43275 0
      vertex 0.34306 -3.48315 0
    endloop
  endfacet
  facet normal 0 0 -1
    outer loop
      vertex -2.91014 -1.9445 0
      vertex 0.34306 -3.48315 0
      vertex 0 -3.5 0
    endloop
  endfacet
  facet normal 0 0 -1
    outer loop
      vertex -2.91014 -1.9445 0
      vertex 0 -3.5 0
      vertex -0.34306 -3.48315 0
    endloop
  endfacet
  facet normal 0 0 -1
    outer loop
      vertex -2.91014 -1.9445 0
      vertex -0.34306 -3.48315 0
      vertex -0.682816 -3.43275 0
    endloop
  endfacet
  facet normal 0 0 -1
    outer loop
      vertex -2.91014 -1.9445 0
      vertex -0.682816 -3.43275 0
      vertex -1.016 -3.34929 0
    endloop
  endfacet
  facet normal 0 0 -1
    outer loop
      vertex -2.91014 -1.9445 0
      vertex -1.016 -3.34929 0
      vertex -1.33939 -3.23358 0
    endloop
  endfacet
  facet normal 0 0 -1
    outer loop
      vertex -2.91014 -1.9445 0
      vertex -1.33939 -3.23358 0
      vertex -1.64989 -3.08672 0
    endloop
  endfacet
  facet normal 0 0 -1
    outer loop
      vertex -2.91014 -1.9445 0
      vertex -1.64989 -3.08672 0
      vertex -1.9445 -2.91014 0
    endloop
  endfacet
  facet normal 0 0 -1
    outer loop
      vertex -2.91014 -1.9445 0
      vertex -1.9445 -2.91014 0
      vertex -2.22038 -2.70554 0
    endloop
  endfacet
  facet normal 0 0 -1
    outer loop
      vertex -2.91014 -1.9445 0
      vertex -2.22038 -2.70554 0
      vertex -2.47487 -2.47487 0
    endloop
  endfacet
  facet normal 0 0 -1
    outer loop
      vertex -2.91014 -1.9445 0
      vertex -2.47487 -2.47487 0
      vertex -2.70554 -2.22038 0
    endloop
  endfacet
  facet normal 0 0 -1
    outer loop
      vertex 2.91014 -1.9445 0
      vertex -2.91014 -1.9445 0
      vertex -12.8147 11.9443 0
    endloop
  endfacet
  facet normal 0 0 -1
    outer loop
      vertex 12.8147 11.9443 0
      vertex -12.8147 11.9443 0
      vertex 4.5 27.5 0
    endloop
  endfacet
  facet normal -0 0 -1
    outer loop
      vertex 4.5 27.5 0
      vertex -12.8147 11.9443 0
      vertex -4.5 27.5 0
    endloop
  endfacet
  facet normal 0 0 -1
    outer loop
      vertex -4.5 27.5 0
      vertex -12.8147 11.9443 0
      vertex -5.48017 27.4518 0
    endloop
  endfacet
  facet normal 0 0 -1
    outer loop
      vertex -5.48017 27.4518 0
      vertex -12.8147 11.9443 0
      vertex -6.4509 27.3079 0
    endloop
  endfacet
  facet normal 0 0 -1
    outer loop
      vertex -6.4509 27.3079 0
      vertex -12.8147 11.9443 0
      vertex -7.40285 27.0694 0
    endloop
  endfacet
  facet normal 0 0 -1
    outer loop
      vertex -7.40285 27.0694 0
      vertex -12.8147 11.9443 0
      vertex -8.32683 26.7388 0
    endloop
  endfacet
  facet normal 0 0 -1
    outer loop
      vertex -8.32683 26.7388 0
      vertex -12.8147 11.9443 0
      vertex -9.21397 26.3192 0
    endloop
  endfacet
  facet normal 0 0 -1
    outer loop
      vertex -9.21397 26.3192 0
      vertex -12.8147 11.9443 0
      vertex -10.0557 25.8147 0
    endloop
  endfacet
  facet normal 0 0 -1
    outer loop
      vertex -10.0557 25.8147 0
      vertex -12.8147 11.9443 0
      vertex -10.8439 25.2301 0
    endloop
  endfacet
  facet normal 0 0 -1
    outer loop
      vertex -10.8439 25.2301 0
      vertex -12.8147 11.9443 0
      vertex -11.5711 24.5711 0
    endloop
  endfacet
  facet normal 0 0 -1
    outer loop
      vertex -11.5711 24.5711 0
      vertex -12.8147 11.9443 0
      vertex -12.2301 23.8439 0
    endloop
  endfacet
  facet normal 0 0 -1
    outer loop
      vertex -12.8147 11.9443 0
      vertex -12.8147 23.0557 0
      vertex -12.2301 23.8439 0
    endloop
  endfacet
  facet normal 0 0 -1
    outer loop
      vertex -13.3192 12.786 0
      vertex -12.8147 23.0557 0
      vertex -12.8147 11.9443 0
    endloop
  endfacet
  facet normal 0 0 -1
    outer loop
      vertex -13.3192 12.786 0
      vertex -13.3192 22.214 0
      vertex -12.8147 23.0557 0
    endloop
  endfacet
  facet normal 0 0 -1
    outer loop
      vertex -13.7388 13.6732 0
      vertex -13.3192 22.214 0
      vertex -13.3192 12.786 0
    endloop
  endfacet
  facet normal 0 0 -1
    outer loop
      vertex -13.7388 13.6732 0
      vertex -13.7388 21.3268 0
      vertex -13.3192 22.214 0
    endloop
  endfacet
  facet normal 0 0 -1
    outer loop
      vertex -14.0694 14.5972 0
      vertex -13.7388 21.3268 0
      vertex -13.7388 13.6732 0
    endloop
  endfacet
  facet normal 0 0 -1
    outer loop
      vertex -14.0694 14.5972 0
      vertex -14.0694 20.4028 0
      vertex -13.7388 21.3268 0
    endloop
  endfacet
  facet normal 0 0 -1
    outer loop
      vertex -14.3079 15.5491 0
      vertex -14.0694 20.4028 0
      vertex -14.0694 14.5972 0
    endloop
  endfacet
  facet normal 0 0 -1
    outer loop
      vertex -14.3079 15.5491 0
      vertex -14.3079 19.4509 0
      vertex -14.0694 20.4028 0
    endloop
  endfacet
  facet normal 0 0 -1
    outer loop
      vertex -14.4518 16.5198 0
      vertex -14.3079 19.4509 0
      vertex -14.3079 15.5491 0
    endloop
  endfacet
  facet normal 0 0 -1
    outer loop
      vertex -14.4518 16.5198 0
      vertex -14.4518 18.4802 0
      vertex -14.3079 19.4509 0
    endloop
  endfacet
  facet normal 0 -0 -1
    outer loop
      vertex -14.4518 18.4802 0
      vertex -14.4518 16.5198 0
      vertex -14.5 17.5 0
    endloop
  endfacet
  facet normal -0.514098 -0.857732 0
    outer loop
      vertex -1.9445 -2.91014 0
      vertex -1.64989 -3.08672 0.799999
      vertex -1.9445 -2.91014 0.799999
    endloop
  endfacet
  facet normal -0.514098 -0.857732 -0
    outer loop
      vertex -1.64989 -3.08672 0.799999
      vertex -1.9445 -2.91014 0
      vertex -1.64989 -3.08672 0
    endloop
  endfacet
  facet normal -0.970016 -0.243039 0
    outer loop
      vertex -14.0694 14.5972 0
      vertex -14.3079 15.5491 0.799999
      vertex -14.3079 15.5491 0
    endloop
  endfacet
  facet normal -0.970016 -0.243039 0
    outer loop
      vertex -14.3079 15.5491 0.799999
      vertex -14.0694 14.5972 0
      vertex -14.0694 14.5972 0.799999
    endloop
  endfacet
  facet normal 0 0 1
    outer loop
      vertex -0.879486 19.6582 0.599999
      vertex -0.0819855 20.9224 0.599999
      vertex -0.855759 20.1202 0.599999
    endloop
  endfacet
  facet normal 0 0 1
    outer loop
      vertex -1.24496 20.9224 0.599999
      vertex -1.00555 19.5949 0.599999
      vertex -0.855759 20.1202 0.599999
    endloop
  endfacet
  facet normal -0 0 1
    outer loop
      vertex -1.24496 20.9224 0.599999
      vertex -0.855759 20.1202 0.599999
      vertex -0.0819855 20.9224 0.599999
    endloop
  endfacet
  facet normal 0 0 1
    outer loop
      vertex -1.00555 19.5949 0.599999
      vertex -1.24496 20.9224 0.599999
      vertex -1.14479 19.1518 0.599999
    endloop
  endfacet
  facet normal 0 0 1
    outer loop
      vertex -1.24496 20.9224 0.599999
      vertex -1.27345 18.7911 0.599999
      vertex -1.14479 19.1518 0.599999
    endloop
  endfacet
  facet normal 0 0 1
    outer loop
      vertex -2.99181 16.2847 0.599999
      vertex -1.27345 18.7911 0.599999
      vertex -1.24496 20.9224 0.599999
    endloop
  endfacet
  facet normal -0 0 1
    outer loop
      vertex -2.99181 16.2847 0.599999
      vertex -3.00133 14.2341 0.599999
      vertex -1.27345 18.7911 0.599999
    endloop
  endfacet
  facet normal -0 0 1
    outer loop
      vertex -3.02902 16.1864 0.599999
      vertex -3.00133 14.2341 0.599999
      vertex -2.99181 16.2847 0.599999
    endloop
  endfacet
  facet normal -0 0 1
    outer loop
      vertex -3.08362 16.0242 0.599999
      vertex -3.00133 14.2341 0.599999
      vertex -3.02902 16.1864 0.599999
    endloop
  endfacet
  facet normal -0 0 1
    outer loop
      vertex -3.15561 15.7982 0.599999
      vertex -3.00133 14.2341 0.599999
      vertex -3.08362 16.0242 0.599999
    endloop
  endfacet
  facet normal -0 0 1
    outer loop
      vertex -3.22708 15.5621 0.599999
      vertex -3.00133 14.2341 0.599999
      vertex -3.15561 15.7982 0.599999
    endloop
  endfacet
  facet normal -0 0 1
    outer loop
      vertex -3.28009 15.3699 0.599999
      vertex -3.00133 14.2341 0.599999
      vertex -3.22708 15.5621 0.599999
    endloop
  endfacet
  facet normal -0 0 1
    outer loop
      vertex -3.31465 15.2214 0.599999
      vertex -3.00133 14.2341 0.599999
      vertex -3.28009 15.3699 0.599999
    endloop
  endfacet
  facet normal 0 0 1
    outer loop
      vertex -3.63742 14.2341 0.599999
      vertex -3.34024 15.3361 0.599999
      vertex -3.37903 15.4904 0.599999
    endloop
  endfacet
  facet normal 0 0 1
    outer loop
      vertex -3.63742 14.2341 0.599999
      vertex -3.37903 15.4904 0.599999
      vertex -3.431 15.6842 0.599999
    endloop
  endfacet
  facet normal 0 0 1
    outer loop
      vertex -3.63742 14.2341 0.599999
      vertex -3.431 15.6842 0.599999
      vertex -3.49031 15.8933 0.599999
    endloop
  endfacet
  facet normal 0 0 1
    outer loop
      vertex -3.63742 14.2341 0.599999
      vertex -3.49031 15.8933 0.599999
      vertex -3.55121 16.0935 0.599999
    endloop
  endfacet
  facet normal 0 0 1
    outer loop
      vertex -3.63742 14.2341 0.599999
      vertex -3.55121 16.0935 0.599999
      vertex -3.61369 16.2847 0.599999
    endloop
  endfacet
  facet normal 0 0 1
    outer loop
      vertex -3.31465 15.2214 0.599999
      vertex -3.63742 14.2341 0.599999
      vertex -3.00133 14.2341 0.599999
    endloop
  endfacet
  facet normal 0 0 1
    outer loop
      vertex -3.34024 15.3361 0.599999
      vertex -3.63742 14.2341 0.599999
      vertex -3.31465 15.2214 0.599999
    endloop
  endfacet
  facet normal 0 0 1
    outer loop
      vertex -3.61369 16.2847 0.599999
      vertex -5.38904 18.7911 0.599999
      vertex -3.63742 14.2341 0.599999
    endloop
  endfacet
  facet normal 0 0 1
    outer loop
      vertex -5.3938 20.9224 0.599999
      vertex -5.38904 18.7911 0.599999
      vertex -3.61369 16.2847 0.599999
    endloop
  endfacet
  facet normal 0 0 1
    outer loop
      vertex -5.3938 20.9224 0.599999
      vertex -5.65482 19.598 0.599999
      vertex -5.38904 18.7911 0.599999
    endloop
  endfacet
  facet normal 0 0 1
    outer loop
      vertex -5.3938 20.9224 0.599999
      vertex -5.81148 20.1202 0.599999
      vertex -5.65482 19.598 0.599999
    endloop
  endfacet
  facet normal 0 -0 1
    outer loop
      vertex -5.81148 20.1202 0.599999
      vertex -5.3938 20.9224 0.599999
      vertex -6.58519 20.9224 0.599999
    endloop
  endfacet
  facet normal 0 0 1
    outer loop
      vertex -0.893723 19.1835 0.599999
      vertex -0.0819855 20.9224 0.599999
      vertex -0.879486 19.6582 0.599999
    endloop
  endfacet
  facet normal 0 0 1
    outer loop
      vertex -0.898468 18.6961 0.599999
      vertex -0.0819855 20.9224 0.599999
      vertex -0.893723 19.1835 0.599999
    endloop
  endfacet
  facet normal 0 0 1
    outer loop
      vertex -0.0819855 20.9224 0.599999
      vertex -0.898468 18.6961 0.599999
      vertex -0.0819855 14.2341 0.599999
    endloop
  endfacet
  facet normal 0 0 1
    outer loop
      vertex -0.0819855 14.2341 0.599999
      vertex -0.898468 18.6961 0.599999
      vertex -0.898468 14.2341 0.599999
    endloop
  endfacet
  facet normal 0 0 1
    outer loop
      vertex -6.58519 20.9224 0.599999
      vertex -5.77823 18.6961 0.599999
      vertex -5.79727 19.5933 0.599999
    endloop
  endfacet
  facet normal 0 0 1
    outer loop
      vertex -6.58519 20.9224 0.599999
      vertex -5.79727 19.5933 0.599999
      vertex -5.81148 20.1202 0.599999
    endloop
  endfacet
  facet normal 0 0 1
    outer loop
      vertex -5.77823 18.6961 0.599999
      vertex -6.58519 20.9224 0.599999
      vertex -6.58519 14.2341 0.599999
    endloop
  endfacet
  facet normal 0 0 1
    outer loop
      vertex -5.77823 18.6961 0.599999
      vertex -6.58519 14.2341 0.599999
      vertex -5.77823 14.2341 0.599999
    endloop
  endfacet
  facet normal -0 0 1
    outer loop
      vertex 6.09453 18.4105 0.599999
      vertex 7.08162 17.647 0.599999
      vertex 6.97903 18.6146 0.599999
    endloop
  endfacet
  facet normal 0 0 1
    outer loop
      vertex 6.13699 17.1207 0.599999
      vertex 7.08162 17.647 0.599999
      vertex 6.17021 17.647 0.599999
    endloop
  endfacet
  facet normal 0 0 1
    outer loop
      vertex 7.08162 17.647 0.599999
      vertex 6.13699 17.1207 0.599999
      vertex 7.03679 16.9859 0.599999
    endloop
  endfacet
  facet normal 0 0 1
    outer loop
      vertex 6.09453 18.4105 0.599999
      vertex 6.97903 18.6146 0.599999
      vertex 6.67126 19.4224 0.599999
    endloop
  endfacet
  facet normal 0 0 1
    outer loop
      vertex 6.03731 16.6429 0.599999
      vertex 7.03679 16.9859 0.599999
      vertex 6.13699 17.1207 0.599999
    endloop
  endfacet
  facet normal 0 0 1
    outer loop
      vertex 7.03679 16.9859 0.599999
      vertex 6.03731 16.6429 0.599999
      vertex 6.9023 16.3823 0.599999
    endloop
  endfacet
  facet normal 0 0 1
    outer loop
      vertex 5.86748 19.0426 0.599999
      vertex 6.67126 19.4224 0.599999
      vertex 6.15833 20.0703 0.599999
    endloop
  endfacet
  facet normal 0 0 1
    outer loop
      vertex 7.08162 17.647 0.599999
      vertex 6.09453 18.4105 0.599999
      vertex 6.17021 17.647 0.599999
    endloop
  endfacet
  facet normal 0 0 1
    outer loop
      vertex 6.67126 19.4224 0.599999
      vertex 5.86748 19.0426 0.599999
      vertex 6.09453 18.4105 0.599999
    endloop
  endfacet
  facet normal 0 0 1
    outer loop
      vertex 6.15833 20.0703 0.599999
      vertex 5.48904 19.5434 0.599999
      vertex 5.86748 19.0426 0.599999
    endloop
  endfacet
  facet normal 0 0 1
    outer loop
      vertex 5.45659 20.5437 0.599999
      vertex 5.48904 19.5434 0.599999
      vertex 6.15833 20.0703 0.599999
    endloop
  endfacet
  facet normal 0 0 1
    outer loop
      vertex 5.45659 20.5437 0.599999
      vertex 4.96716 19.9061 0.599999
      vertex 5.48904 19.5434 0.599999
    endloop
  endfacet
  facet normal 0 0 1
    outer loop
      vertex 4.58238 20.8277 0.599999
      vertex 4.96716 19.9061 0.599999
      vertex 5.45659 20.5437 0.599999
    endloop
  endfacet
  facet normal 0 0 1
    outer loop
      vertex 4.58238 20.8277 0.599999
      vertex 4.30972 20.1236 0.599999
      vertex 4.96716 19.9061 0.599999
    endloop
  endfacet
  facet normal 0 0 1
    outer loop
      vertex 3.53571 20.9224 0.599999
      vertex 4.30972 20.1236 0.599999
      vertex 4.58238 20.8277 0.599999
    endloop
  endfacet
  facet normal 0 0 1
    outer loop
      vertex 3.53571 20.9224 0.599999
      vertex 3.51672 20.1962 0.599999
      vertex 4.30972 20.1236 0.599999
    endloop
  endfacet
  facet normal 0 0 1
    outer loop
      vertex 3.53571 20.9224 0.599999
      vertex 2.23033 20.1962 0.599999
      vertex 3.51672 20.1962 0.599999
    endloop
  endfacet
  facet normal 0 0 1
    outer loop
      vertex 2.23033 20.1962 0.599999
      vertex 1.3237 20.9224 0.599999
      vertex 2.23033 14.9603 0.599999
    endloop
  endfacet
  facet normal -0 0 1
    outer loop
      vertex 1.3237 20.9224 0.599999
      vertex 2.23033 20.1962 0.599999
      vertex 3.53571 20.9224 0.599999
    endloop
  endfacet
  facet normal 0 0 1
    outer loop
      vertex 6.9023 16.3823 0.599999
      vertex 6.03731 16.6429 0.599999
      vertex 6.67813 15.8361 0.599999
    endloop
  endfacet
  facet normal -0 0 1
    outer loop
      vertex 5.87119 16.2135 0.599999
      vertex 6.67813 15.8361 0.599999
      vertex 6.03731 16.6429 0.599999
    endloop
  endfacet
  facet normal 0 0 1
    outer loop
      vertex 6.67813 15.8361 0.599999
      vertex 5.87119 16.2135 0.599999
      vertex 6.3717 15.359 0.599999
    endloop
  endfacet
  facet normal -0 0 1
    outer loop
      vertex 5.64307 15.8401 0.599999
      vertex 6.3717 15.359 0.599999
      vertex 5.87119 16.2135 0.599999
    endloop
  endfacet
  facet normal 0 0 1
    outer loop
      vertex 6.3717 15.359 0.599999
      vertex 5.64307 15.8401 0.599999
      vertex 5.99037 14.9627 0.599999
    endloop
  endfacet
  facet normal -0 0 1
    outer loop
      vertex 5.35747 15.53 0.599999
      vertex 5.99037 14.9627 0.599999
      vertex 5.64307 15.8401 0.599999
    endloop
  endfacet
  facet normal 0 0 1
    outer loop
      vertex 5.99037 14.9627 0.599999
      vertex 5.35747 15.53 0.599999
      vertex 5.53413 14.647 0.599999
    endloop
  endfacet
  facet normal -0 0 1
    outer loop
      vertex 5.01437 15.2831 0.599999
      vertex 5.53413 14.647 0.599999
      vertex 5.35747 15.53 0.599999
    endloop
  endfacet
  facet normal 0 0 1
    outer loop
      vertex 5.53413 14.647 0.599999
      vertex 5.01437 15.2831 0.599999
      vertex 5.01514 14.4176 0.599999
    endloop
  endfacet
  facet normal -0 0 1
    outer loop
      vertex 4.62276 15.1038 0.599999
      vertex 5.01514 14.4176 0.599999
      vertex 5.01437 15.2831 0.599999
    endloop
  endfacet
  facet normal 0 0 1
    outer loop
      vertex 4.62276 15.1038 0.599999
      vertex 4.44553 14.28 0.599999
      vertex 5.01514 14.4176 0.599999
    endloop
  endfacet
  facet normal -0 0 1
    outer loop
      vertex 4.19159 14.9962 0.599999
      vertex 4.44553 14.28 0.599999
      vertex 4.62276 15.1038 0.599999
    endloop
  endfacet
  facet normal 0 0 1
    outer loop
      vertex 4.19159 14.9962 0.599999
      vertex 3.82529 14.2341 0.599999
      vertex 4.44553 14.28 0.599999
    endloop
  endfacet
  facet normal -0 0 1
    outer loop
      vertex 3.72086 14.9603 0.599999
      vertex 3.82529 14.2341 0.599999
      vertex 4.19159 14.9962 0.599999
    endloop
  endfacet
  facet normal -0 0 1
    outer loop
      vertex 2.23033 14.9603 0.599999
      vertex 3.82529 14.2341 0.599999
      vertex 3.72086 14.9603 0.599999
    endloop
  endfacet
  facet normal 0 0 1
    outer loop
      vertex 2.23033 14.9603 0.599999
      vertex 1.3237 14.2341 0.599999
      vertex 3.82529 14.2341 0.599999
    endloop
  endfacet
  facet normal 0 0 1
    outer loop
      vertex 1.3237 14.2341 0.599999
      vertex 2.23033 14.9603 0.599999
      vertex 1.3237 20.9224 0.599999
    endloop
  endfacet
  facet normal -0.999775 -0.0212168 0
    outer loop
      vertex -5.77823 18.6961 0.599999
      vertex -5.79727 19.5933 0.799999
      vertex -5.79727 19.5933 0.599999
    endloop
  endfacet
  facet normal -0.999775 -0.0212168 0
    outer loop
      vertex -5.79727 19.5933 0.799999
      vertex -5.77823 18.6961 0.599999
      vertex -5.77823 18.6961 0.799999
    endloop
  endfacet
  facet normal -0.999637 -0.0269593 0
    outer loop
      vertex -5.79727 19.5933 0.599999
      vertex -5.81148 20.1202 0.799999
      vertex -5.81148 20.1202 0.599999
    endloop
  endfacet
  facet normal -0.999637 -0.0269593 0
    outer loop
      vertex -5.81148 20.1202 0.799999
      vertex -5.79727 19.5933 0.599999
      vertex -5.79727 19.5933 0.799999
    endloop
  endfacet
  facet normal 0.957826 0.287348 0
    outer loop
      vertex -5.65482 19.598 0.799999
      vertex -5.81148 20.1202 0.599999
      vertex -5.81148 20.1202 0.799999
    endloop
  endfacet
  facet normal 0.957826 0.287348 0
    outer loop
      vertex -5.81148 20.1202 0.599999
      vertex -5.65482 19.598 0.799999
      vertex -5.65482 19.598 0.599999
    endloop
  endfacet
  facet normal 0.949803 0.31285 0
    outer loop
      vertex -5.38904 18.7911 0.799999
      vertex -5.65482 19.598 0.599999
      vertex -5.65482 19.598 0.799999
    endloop
  endfacet
  facet normal 0.949803 0.31285 0
    outer loop
      vertex -5.65482 19.598 0.599999
      vertex -5.38904 18.7911 0.799999
      vertex -5.38904 18.7911 0.599999
    endloop
  endfacet
  facet normal 0.933419 0.358788 0
    outer loop
      vertex -3.63742 14.2341 0.799999
      vertex -5.38904 18.7911 0.599999
      vertex -5.38904 18.7911 0.799999
    endloop
  endfacet
  facet normal 0.933419 0.358788 0
    outer loop
      vertex -5.38904 18.7911 0.599999
      vertex -3.63742 14.2341 0.799999
      vertex -3.63742 14.2341 0.599999
    endloop
  endfacet
  facet normal 0 1 -0
    outer loop
      vertex -3.00133 14.2341 0.599999
      vertex -3.63742 14.2341 0.799999
      vertex -3.00133 14.2341 0.799999
    endloop
  endfacet
  facet normal 0 1 0
    outer loop
      vertex -3.63742 14.2341 0.799999
      vertex -3.00133 14.2341 0.599999
      vertex -3.63742 14.2341 0.599999
    endloop
  endfacet
  facet normal -0.935041 0.35454 0
    outer loop
      vertex -3.00133 14.2341 0.599999
      vertex -1.27345 18.7911 0.799999
      vertex -1.27345 18.7911 0.599999
    endloop
  endfacet
  facet normal -0.935041 0.35454 0
    outer loop
      vertex -1.27345 18.7911 0.799999
      vertex -3.00133 14.2341 0.599999
      vertex -3.00133 14.2341 0.799999
    endloop
  endfacet
  facet normal -0.941875 0.335963 0
    outer loop
      vertex -1.27345 18.7911 0.599999
      vertex -1.14479 19.1518 0.799999
      vertex -1.14479 19.1518 0.599999
    endloop
  endfacet
  facet normal -0.941875 0.335963 0
    outer loop
      vertex -1.14479 19.1518 0.799999
      vertex -1.27345 18.7911 0.599999
      vertex -1.27345 18.7911 0.799999
    endloop
  endfacet
  facet normal -0.954006 0.299787 0
    outer loop
      vertex -1.14479 19.1518 0.599999
      vertex -1.00555 19.5949 0.799999
      vertex -1.00555 19.5949 0.599999
    endloop
  endfacet
  facet normal -0.954006 0.299787 0
    outer loop
      vertex -1.00555 19.5949 0.799999
      vertex -1.14479 19.1518 0.599999
      vertex -1.14479 19.1518 0.799999
    endloop
  endfacet
  facet normal -0.961666 0.274222 0
    outer loop
      vertex -1.00555 19.5949 0.599999
      vertex -0.855759 20.1202 0.799999
      vertex -0.855759 20.1202 0.599999
    endloop
  endfacet
  facet normal -0.961666 0.274222 0
    outer loop
      vertex -0.855759 20.1202 0.799999
      vertex -1.00555 19.5949 0.599999
      vertex -1.00555 19.5949 0.799999
    endloop
  endfacet
  facet normal 0.998684 -0.0512895 0
    outer loop
      vertex -0.879486 19.6582 0.799999
      vertex -0.855759 20.1202 0.599999
      vertex -0.855759 20.1202 0.799999
    endloop
  endfacet
  facet normal 0.998684 -0.0512895 0
    outer loop
      vertex -0.855759 20.1202 0.599999
      vertex -0.879486 19.6582 0.799999
      vertex -0.879486 19.6582 0.599999
    endloop
  endfacet
  facet normal 0.999551 -0.0299781 0
    outer loop
      vertex -0.893723 19.1835 0.799999
      vertex -0.879486 19.6582 0.599999
      vertex -0.879486 19.6582 0.799999
    endloop
  endfacet
  facet normal 0.999551 -0.0299781 0
    outer loop
      vertex -0.879486 19.6582 0.599999
      vertex -0.893723 19.1835 0.799999
      vertex -0.893723 19.1835 0.599999
    endloop
  endfacet
  facet normal 0.999953 -0.00973487 0
    outer loop
      vertex -0.898468 18.6961 0.799999
      vertex -0.893723 19.1835 0.599999
      vertex -0.893723 19.1835 0.799999
    endloop
  endfacet
  facet normal 0.999953 -0.00973487 0
    outer loop
      vertex -0.893723 19.1835 0.599999
      vertex -0.898468 18.6961 0.799999
      vertex -0.898468 18.6961 0.599999
    endloop
  endfacet
  facet normal 1 -0 0
    outer loop
      vertex -0.898468 14.2341 0.799999
      vertex -0.898468 18.6961 0.599999
      vertex -0.898468 18.6961 0.799999
    endloop
  endfacet
  facet normal 1 0 0
    outer loop
      vertex -0.898468 18.6961 0.599999
      vertex -0.898468 14.2341 0.799999
      vertex -0.898468 14.2341 0.599999
    endloop
  endfacet
  facet normal 0 1 -0
    outer loop
      vertex -0.0819855 14.2341 0.599999
      vertex -0.898468 14.2341 0.799999
      vertex -0.0819855 14.2341 0.799999
    endloop
  endfacet
  facet normal 0 1 0
    outer loop
      vertex -0.898468 14.2341 0.799999
      vertex -0.0819855 14.2341 0.599999
      vertex -0.898468 14.2341 0.599999
    endloop
  endfacet
  facet normal -1 0 0
    outer loop
      vertex -0.0819855 14.2341 0.599999
      vertex -0.0819855 20.9224 0.799999
      vertex -0.0819855 20.9224 0.599999
    endloop
  endfacet
  facet normal -1 -0 0
    outer loop
      vertex -0.0819855 20.9224 0.799999
      vertex -0.0819855 14.2341 0.599999
      vertex -0.0819855 14.2341 0.799999
    endloop
  endfacet
  facet normal 0 -1 0
    outer loop
      vertex -1.24496 20.9224 0.599999
      vertex -0.0819855 20.9224 0.799999
      vertex -1.24496 20.9224 0.799999
    endloop
  endfacet
  facet normal 0 -1 -0
    outer loop
      vertex -0.0819855 20.9224 0.799999
      vertex -1.24496 20.9224 0.599999
      vertex -0.0819855 20.9224 0.599999
    endloop
  endfacet
  facet normal 0.935817 -0.352487 0
    outer loop
      vertex -2.99181 16.2847 0.799999
      vertex -1.24496 20.9224 0.599999
      vertex -1.24496 20.9224 0.799999
    endloop
  endfacet
  facet normal 0.935817 -0.352487 0
    outer loop
      vertex -1.24496 20.9224 0.599999
      vertex -2.99181 16.2847 0.799999
      vertex -2.99181 16.2847 0.599999
    endloop
  endfacet
  facet normal 0.935238 -0.35402 0
    outer loop
      vertex -3.02902 16.1864 0.799999
      vertex -2.99181 16.2847 0.599999
      vertex -2.99181 16.2847 0.799999
    endloop
  endfacet
  facet normal 0.935238 -0.35402 0
    outer loop
      vertex -2.99181 16.2847 0.599999
      vertex -3.02902 16.1864 0.799999
      vertex -3.02902 16.1864 0.599999
    endloop
  endfacet
  facet normal 0.947744 -0.319031 0
    outer loop
      vertex -3.08362 16.0242 0.799999
      vertex -3.02902 16.1864 0.599999
      vertex -3.02902 16.1864 0.799999
    endloop
  endfacet
  facet normal 0.947744 -0.319031 0
    outer loop
      vertex -3.02902 16.1864 0.599999
      vertex -3.08362 16.0242 0.799999
      vertex -3.08362 16.0242 0.599999
    endloop
  endfacet
  facet normal 0.952827 -0.303513 0
    outer loop
      vertex -3.15561 15.7982 0.799999
      vertex -3.08362 16.0242 0.599999
      vertex -3.08362 16.0242 0.799999
    endloop
  endfacet
  facet normal 0.952827 -0.303513 0
    outer loop
      vertex -3.08362 16.0242 0.599999
      vertex -3.15561 15.7982 0.799999
      vertex -3.15561 15.7982 0.599999
    endloop
  endfacet
  facet normal 0.957109 -0.289727 0
    outer loop
      vertex -3.22708 15.5621 0.799999
      vertex -3.15561 15.7982 0.599999
      vertex -3.15561 15.7982 0.799999
    endloop
  endfacet
  facet normal 0.957109 -0.289727 0
    outer loop
      vertex -3.15561 15.7982 0.599999
      vertex -3.22708 15.5621 0.799999
      vertex -3.22708 15.5621 0.599999
    endloop
  endfacet
  facet normal 0.964006 -0.265879 0
    outer loop
      vertex -3.28009 15.3699 0.799999
      vertex -3.22708 15.5621 0.599999
      vertex -3.22708 15.5621 0.799999
    endloop
  endfacet
  facet normal 0.964006 -0.265879 0
    outer loop
      vertex -3.22708 15.5621 0.599999
      vertex -3.28009 15.3699 0.799999
      vertex -3.28009 15.3699 0.599999
    endloop
  endfacet
  facet normal 0.973972 -0.22667 0
    outer loop
      vertex -3.31465 15.2214 0.799999
      vertex -3.28009 15.3699 0.599999
      vertex -3.28009 15.3699 0.799999
    endloop
  endfacet
  facet normal 0.973972 -0.22667 0
    outer loop
      vertex -3.28009 15.3699 0.599999
      vertex -3.31465 15.2214 0.799999
      vertex -3.31465 15.2214 0.599999
    endloop
  endfacet
  facet normal -0.976005 -0.21775 0
    outer loop
      vertex -3.31465 15.2214 0.599999
      vertex -3.34024 15.3361 0.799999
      vertex -3.34024 15.3361 0.599999
    endloop
  endfacet
  facet normal -0.976005 -0.21775 0
    outer loop
      vertex -3.34024 15.3361 0.799999
      vertex -3.31465 15.2214 0.599999
      vertex -3.31465 15.2214 0.799999
    endloop
  endfacet
  facet normal -0.969824 -0.243807 0
    outer loop
      vertex -3.34024 15.3361 0.599999
      vertex -3.37903 15.4904 0.799999
      vertex -3.37903 15.4904 0.599999
    endloop
  endfacet
  facet normal -0.969824 -0.243807 0
    outer loop
      vertex -3.37903 15.4904 0.799999
      vertex -3.34024 15.3361 0.599999
      vertex -3.34024 15.3361 0.799999
    endloop
  endfacet
  facet normal -0.965874 -0.259012 0
    outer loop
      vertex -3.37903 15.4904 0.599999
      vertex -3.431 15.6842 0.799999
      vertex -3.431 15.6842 0.599999
    endloop
  endfacet
  facet normal -0.965874 -0.259012 0
    outer loop
      vertex -3.431 15.6842 0.799999
      vertex -3.37903 15.4904 0.599999
      vertex -3.37903 15.4904 0.799999
    endloop
  endfacet
  facet normal -0.962048 -0.272879 0
    outer loop
      vertex -3.431 15.6842 0.599999
      vertex -3.49031 15.8933 0.799999
      vertex -3.49031 15.8933 0.599999
    endloop
  endfacet
  facet normal -0.962048 -0.272879 0
    outer loop
      vertex -3.49031 15.8933 0.799999
      vertex -3.431 15.6842 0.599999
      vertex -3.431 15.6842 0.799999
    endloop
  endfacet
  facet normal -0.956714 -0.291029 0
    outer loop
      vertex -3.49031 15.8933 0.599999
      vertex -3.55121 16.0935 0.799999
      vertex -3.55121 16.0935 0.599999
    endloop
  endfacet
  facet normal -0.956714 -0.291029 0
    outer loop
      vertex -3.55121 16.0935 0.799999
      vertex -3.49031 15.8933 0.599999
      vertex -3.49031 15.8933 0.799999
    endloop
  endfacet
  facet normal -0.950536 -0.310614 0
    outer loop
      vertex -3.55121 16.0935 0.599999
      vertex -3.61369 16.2847 0.799999
      vertex -3.61369 16.2847 0.599999
    endloop
  endfacet
  facet normal -0.950536 -0.310614 0
    outer loop
      vertex -3.61369 16.2847 0.799999
      vertex -3.55121 16.0935 0.599999
      vertex -3.55121 16.0935 0.799999
    endloop
  endfacet
  facet normal -0.93359 -0.358344 0
    outer loop
      vertex -3.61369 16.2847 0.599999
      vertex -5.3938 20.9224 0.799999
      vertex -5.3938 20.9224 0.599999
    endloop
  endfacet
  facet normal -0.93359 -0.358344 0
    outer loop
      vertex -5.3938 20.9224 0.799999
      vertex -3.61369 16.2847 0.599999
      vertex -3.61369 16.2847 0.799999
    endloop
  endfacet
  facet normal 0 -1 0
    outer loop
      vertex -6.58519 20.9224 0.599999
      vertex -5.3938 20.9224 0.799999
      vertex -6.58519 20.9224 0.799999
    endloop
  endfacet
  facet normal 0 -1 -0
    outer loop
      vertex -5.3938 20.9224 0.799999
      vertex -6.58519 20.9224 0.599999
      vertex -5.3938 20.9224 0.599999
    endloop
  endfacet
  facet normal 1 -0 0
    outer loop
      vertex -6.58519 14.2341 0.799999
      vertex -6.58519 20.9224 0.599999
      vertex -6.58519 20.9224 0.799999
    endloop
  endfacet
  facet normal 1 0 0
    outer loop
      vertex -6.58519 20.9224 0.599999
      vertex -6.58519 14.2341 0.799999
      vertex -6.58519 14.2341 0.599999
    endloop
  endfacet
  facet normal 0 1 -0
    outer loop
      vertex -5.77823 14.2341 0.599999
      vertex -6.58519 14.2341 0.799999
      vertex -5.77823 14.2341 0.799999
    endloop
  endfacet
  facet normal 0 1 0
    outer loop
      vertex -6.58519 14.2341 0.799999
      vertex -5.77823 14.2341 0.599999
      vertex -6.58519 14.2341 0.599999
    endloop
  endfacet
  facet normal -1 0 0
    outer loop
      vertex -5.77823 14.2341 0.599999
      vertex -5.77823 18.6961 0.799999
      vertex -5.77823 18.6961 0.599999
    endloop
  endfacet
  facet normal -1 -0 0
    outer loop
      vertex -5.77823 18.6961 0.799999
      vertex -5.77823 14.2341 0.599999
      vertex -5.77823 14.2341 0.799999
    endloop
  endfacet
  facet normal -0.234815 0.97204 0
    outer loop
      vertex 5.01514 14.4176 0.599999
      vertex 4.44553 14.28 0.799999
      vertex 5.01514 14.4176 0.799999
    endloop
  endfacet
  facet normal -0.234815 0.97204 0
    outer loop
      vertex 4.44553 14.28 0.799999
      vertex 5.01514 14.4176 0.599999
      vertex 4.44553 14.28 0.599999
    endloop
  endfacet
  facet normal -0.40428 0.914635 0
    outer loop
      vertex 5.53413 14.647 0.599999
      vertex 5.01514 14.4176 0.799999
      vertex 5.53413 14.647 0.799999
    endloop
  endfacet
  facet normal -0.40428 0.914635 0
    outer loop
      vertex 5.01514 14.4176 0.799999
      vertex 5.53413 14.647 0.599999
      vertex 5.01514 14.4176 0.599999
    endloop
  endfacet
  facet normal -0.569017 0.822326 0
    outer loop
      vertex 5.99037 14.9627 0.599999
      vertex 5.53413 14.647 0.799999
      vertex 5.99037 14.9627 0.799999
    endloop
  endfacet
  facet normal -0.569017 0.822326 0
    outer loop
      vertex 5.53413 14.647 0.799999
      vertex 5.99037 14.9627 0.599999
      vertex 5.53413 14.647 0.599999
    endloop
  endfacet
  facet normal -0.720586 0.693366 0
    outer loop
      vertex 5.99037 14.9627 0.599999
      vertex 6.3717 15.359 0.799999
      vertex 6.3717 15.359 0.599999
    endloop
  endfacet
  facet normal -0.720586 0.693366 0
    outer loop
      vertex 6.3717 15.359 0.799999
      vertex 5.99037 14.9627 0.599999
      vertex 5.99037 14.9627 0.799999
    endloop
  endfacet
  facet normal -0.841401 0.540412 0
    outer loop
      vertex 6.3717 15.359 0.599999
      vertex 6.67813 15.8361 0.799999
      vertex 6.67813 15.8361 0.599999
    endloop
  endfacet
  facet normal -0.841401 0.540412 0
    outer loop
      vertex 6.67813 15.8361 0.799999
      vertex 6.3717 15.359 0.599999
      vertex 6.3717 15.359 0.799999
    endloop
  endfacet
  facet normal -0.925116 0.379684 0
    outer loop
      vertex 6.67813 15.8361 0.599999
      vertex 6.9023 16.3823 0.799999
      vertex 6.9023 16.3823 0.599999
    endloop
  endfacet
  facet normal -0.925116 0.379684 0
    outer loop
      vertex 6.9023 16.3823 0.799999
      vertex 6.67813 15.8361 0.599999
      vertex 6.67813 15.8361 0.799999
    endloop
  endfacet
  facet normal -0.976065 0.21748 0
    outer loop
      vertex 6.9023 16.3823 0.599999
      vertex 7.03679 16.9859 0.799999
      vertex 7.03679 16.9859 0.599999
    endloop
  endfacet
  facet normal -0.976065 0.21748 0
    outer loop
      vertex 7.03679 16.9859 0.799999
      vertex 6.9023 16.3823 0.599999
      vertex 6.9023 16.3823 0.799999
    endloop
  endfacet
  facet normal -0.997709 0.0676558 0
    outer loop
      vertex 7.03679 16.9859 0.599999
      vertex 7.08162 17.647 0.799999
      vertex 7.08162 17.647 0.599999
    endloop
  endfacet
  facet normal -0.997709 0.0676558 0
    outer loop
      vertex 7.08162 17.647 0.799999
      vertex 7.03679 16.9859 0.599999
      vertex 7.03679 16.9859 0.799999
    endloop
  endfacet
  facet normal -0.994426 -0.105434 0
    outer loop
      vertex 7.08162 17.647 0.599999
      vertex 6.97903 18.6146 0.799999
      vertex 6.97903 18.6146 0.599999
    endloop
  endfacet
  facet normal -0.994426 -0.105434 0
    outer loop
      vertex 6.97903 18.6146 0.799999
      vertex 7.08162 17.647 0.599999
      vertex 7.08162 17.647 0.799999
    endloop
  endfacet
  facet normal -0.934474 -0.356032 0
    outer loop
      vertex 6.97903 18.6146 0.599999
      vertex 6.67126 19.4224 0.799999
      vertex 6.67126 19.4224 0.599999
    endloop
  endfacet
  facet normal -0.934474 -0.356032 0
    outer loop
      vertex 6.67126 19.4224 0.799999
      vertex 6.97903 18.6146 0.599999
      vertex 6.97903 18.6146 0.799999
    endloop
  endfacet
  facet normal -0.78404 -0.62071 0
    outer loop
      vertex 6.67126 19.4224 0.599999
      vertex 6.15833 20.0703 0.799999
      vertex 6.15833 20.0703 0.599999
    endloop
  endfacet
  facet normal -0.78404 -0.62071 0
    outer loop
      vertex 6.15833 20.0703 0.799999
      vertex 6.67126 19.4224 0.599999
      vertex 6.67126 19.4224 0.799999
    endloop
  endfacet
  facet normal -0.55925 -0.828999 0
    outer loop
      vertex 5.45659 20.5437 0.599999
      vertex 6.15833 20.0703 0.799999
      vertex 5.45659 20.5437 0.799999
    endloop
  endfacet
  facet normal -0.55925 -0.828999 -0
    outer loop
      vertex 6.15833 20.0703 0.799999
      vertex 5.45659 20.5437 0.599999
      vertex 6.15833 20.0703 0.599999
    endloop
  endfacet
  facet normal -0.30897 -0.951072 0
    outer loop
      vertex 4.58238 20.8277 0.599999
      vertex 5.45659 20.5437 0.799999
      vertex 4.58238 20.8277 0.799999
    endloop
  endfacet
  facet normal -0.30897 -0.951072 -0
    outer loop
      vertex 5.45659 20.5437 0.799999
      vertex 4.58238 20.8277 0.599999
      vertex 5.45659 20.5437 0.599999
    endloop
  endfacet
  facet normal -0.0901093 -0.995932 0
    outer loop
      vertex 3.53571 20.9224 0.599999
      vertex 4.58238 20.8277 0.799999
      vertex 3.53571 20.9224 0.799999
    endloop
  endfacet
  facet normal -0.0901093 -0.995932 -0
    outer loop
      vertex 4.58238 20.8277 0.799999
      vertex 3.53571 20.9224 0.599999
      vertex 4.58238 20.8277 0.599999
    endloop
  endfacet
  facet normal 0 -1 0
    outer loop
      vertex 1.3237 20.9224 0.599999
      vertex 3.53571 20.9224 0.799999
      vertex 1.3237 20.9224 0.799999
    endloop
  endfacet
  facet normal 0 -1 -0
    outer loop
      vertex 3.53571 20.9224 0.799999
      vertex 1.3237 20.9224 0.599999
      vertex 3.53571 20.9224 0.599999
    endloop
  endfacet
  facet normal 1 -0 0
    outer loop
      vertex 1.3237 14.2341 0.799999
      vertex 1.3237 20.9224 0.599999
      vertex 1.3237 20.9224 0.799999
    endloop
  endfacet
  facet normal 1 0 0
    outer loop
      vertex 1.3237 20.9224 0.599999
      vertex 1.3237 14.2341 0.799999
      vertex 1.3237 14.2341 0.599999
    endloop
  endfacet
  facet normal 0 1 -0
    outer loop
      vertex 3.82529 14.2341 0.599999
      vertex 1.3237 14.2341 0.799999
      vertex 3.82529 14.2341 0.799999
    endloop
  endfacet
  facet normal 0 1 0
    outer loop
      vertex 1.3237 14.2341 0.799999
      vertex 3.82529 14.2341 0.599999
      vertex 1.3237 14.2341 0.599999
    endloop
  endfacet
  facet normal -0.0738018 0.997273 0
    outer loop
      vertex 4.44553 14.28 0.599999
      vertex 3.82529 14.2341 0.799999
      vertex 4.44553 14.28 0.799999
    endloop
  endfacet
  facet normal -0.0738018 0.997273 0
    outer loop
      vertex 3.82529 14.2341 0.799999
      vertex 4.44553 14.28 0.599999
      vertex 3.82529 14.2341 0.599999
    endloop
  endfacet
  facet normal -1 0 0
    outer loop
      vertex 2.23033 14.9603 0.599999
      vertex 2.23033 20.1962 0.799999
      vertex 2.23033 20.1962 0.599999
    endloop
  endfacet
  facet normal -1 -0 0
    outer loop
      vertex 2.23033 20.1962 0.799999
      vertex 2.23033 14.9603 0.599999
      vertex 2.23033 14.9603 0.799999
    endloop
  endfacet
  facet normal 0 1 -0
    outer loop
      vertex 3.51672 20.1962 0.599999
      vertex 2.23033 20.1962 0.799999
      vertex 3.51672 20.1962 0.799999
    endloop
  endfacet
  facet normal 0 1 0
    outer loop
      vertex 2.23033 20.1962 0.799999
      vertex 3.51672 20.1962 0.599999
      vertex 2.23033 20.1962 0.599999
    endloop
  endfacet
  facet normal 0.0911698 0.995835 -0
    outer loop
      vertex 4.30972 20.1236 0.599999
      vertex 3.51672 20.1962 0.799999
      vertex 4.30972 20.1236 0.799999
    endloop
  endfacet
  facet normal 0.0911698 0.995835 0
    outer loop
      vertex 3.51672 20.1962 0.799999
      vertex 4.30972 20.1236 0.599999
      vertex 3.51672 20.1962 0.599999
    endloop
  endfacet
  facet normal 0.314087 0.949394 -0
    outer loop
      vertex 4.96716 19.9061 0.599999
      vertex 4.30972 20.1236 0.799999
      vertex 4.96716 19.9061 0.799999
    endloop
  endfacet
  facet normal 0.314087 0.949394 0
    outer loop
      vertex 4.30972 20.1236 0.799999
      vertex 4.96716 19.9061 0.599999
      vertex 4.30972 20.1236 0.599999
    endloop
  endfacet
  facet normal 0.570697 0.821161 -0
    outer loop
      vertex 5.48904 19.5434 0.599999
      vertex 4.96716 19.9061 0.799999
      vertex 5.48904 19.5434 0.799999
    endloop
  endfacet
  facet normal 0.570697 0.821161 0
    outer loop
      vertex 4.96716 19.9061 0.799999
      vertex 5.48904 19.5434 0.599999
      vertex 4.96716 19.9061 0.599999
    endloop
  endfacet
  facet normal 0.797823 0.602892 0
    outer loop
      vertex 5.86748 19.0426 0.799999
      vertex 5.48904 19.5434 0.599999
      vertex 5.48904 19.5434 0.799999
    endloop
  endfacet
  facet normal 0.797823 0.602892 0
    outer loop
      vertex 5.48904 19.5434 0.599999
      vertex 5.86748 19.0426 0.799999
      vertex 5.86748 19.0426 0.599999
    endloop
  endfacet
  facet normal 0.941127 0.338052 0
    outer loop
      vertex 6.09453 18.4105 0.799999
      vertex 5.86748 19.0426 0.599999
      vertex 5.86748 19.0426 0.799999
    endloop
  endfacet
  facet normal 0.941127 0.338052 0
    outer loop
      vertex 5.86748 19.0426 0.599999
      vertex 6.09453 18.4105 0.799999
      vertex 6.09453 18.4105 0.599999
    endloop
  endfacet
  facet normal 0.995123 0.0986391 0
    outer loop
      vertex 6.17021 17.647 0.799999
      vertex 6.09453 18.4105 0.599999
      vertex 6.09453 18.4105 0.799999
    endloop
  endfacet
  facet normal 0.995123 0.0986391 0
    outer loop
      vertex 6.09453 18.4105 0.599999
      vertex 6.17021 17.647 0.799999
      vertex 6.17021 17.647 0.599999
    endloop
  endfacet
  facet normal 0.998014 -0.0629945 0
    outer loop
      vertex 6.13699 17.1207 0.799999
      vertex 6.17021 17.647 0.599999
      vertex 6.17021 17.647 0.799999
    endloop
  endfacet
  facet normal 0.998014 -0.0629945 0
    outer loop
      vertex 6.17021 17.647 0.599999
      vertex 6.13699 17.1207 0.799999
      vertex 6.13699 17.1207 0.599999
    endloop
  endfacet
  facet normal 0.978924 -0.204226 0
    outer loop
      vertex 6.03731 16.6429 0.799999
      vertex 6.13699 17.1207 0.599999
      vertex 6.13699 17.1207 0.799999
    endloop
  endfacet
  facet normal 0.978924 -0.204226 0
    outer loop
      vertex 6.13699 17.1207 0.599999
      vertex 6.03731 16.6429 0.799999
      vertex 6.03731 16.6429 0.599999
    endloop
  endfacet
  facet normal 0.932641 -0.360806 0
    outer loop
      vertex 5.87119 16.2135 0.799999
      vertex 6.03731 16.6429 0.599999
      vertex 6.03731 16.6429 0.799999
    endloop
  endfacet
  facet normal 0.932641 -0.360806 0
    outer loop
      vertex 6.03731 16.6429 0.599999
      vertex 5.87119 16.2135 0.799999
      vertex 5.87119 16.2135 0.599999
    endloop
  endfacet
  facet normal 0.853352 -0.521335 0
    outer loop
      vertex 5.64307 15.8401 0.799999
      vertex 5.87119 16.2135 0.599999
      vertex 5.87119 16.2135 0.799999
    endloop
  endfacet
  facet normal 0.853352 -0.521335 0
    outer loop
      vertex 5.87119 16.2135 0.599999
      vertex 5.64307 15.8401 0.799999
      vertex 5.64307 15.8401 0.599999
    endloop
  endfacet
  facet normal 0.735567 -0.677452 0
    outer loop
      vertex 5.35747 15.53 0.799999
      vertex 5.64307 15.8401 0.599999
      vertex 5.64307 15.8401 0.799999
    endloop
  endfacet
  facet normal 0.735567 -0.677452 0
    outer loop
      vertex 5.64307 15.8401 0.599999
      vertex 5.35747 15.53 0.799999
      vertex 5.35747 15.53 0.599999
    endloop
  endfacet
  facet normal 0.584099 -0.811682 0
    outer loop
      vertex 5.01437 15.2831 0.599999
      vertex 5.35747 15.53 0.799999
      vertex 5.01437 15.2831 0.799999
    endloop
  endfacet
  facet normal 0.584099 -0.811682 0
    outer loop
      vertex 5.35747 15.53 0.799999
      vertex 5.01437 15.2831 0.599999
      vertex 5.35747 15.53 0.599999
    endloop
  endfacet
  facet normal 0.416294 -0.90923 0
    outer loop
      vertex 4.62276 15.1038 0.599999
      vertex 5.01437 15.2831 0.799999
      vertex 4.62276 15.1038 0.799999
    endloop
  endfacet
  facet normal 0.416294 -0.90923 0
    outer loop
      vertex 5.01437 15.2831 0.799999
      vertex 4.62276 15.1038 0.599999
      vertex 5.01437 15.2831 0.599999
    endloop
  endfacet
  facet normal 0.242128 -0.970244 0
    outer loop
      vertex 4.19159 14.9962 0.599999
      vertex 4.62276 15.1038 0.799999
      vertex 4.19159 14.9962 0.799999
    endloop
  endfacet
  facet normal 0.242128 -0.970244 0
    outer loop
      vertex 4.62276 15.1038 0.799999
      vertex 4.19159 14.9962 0.599999
      vertex 4.62276 15.1038 0.599999
    endloop
  endfacet
  facet normal 0.0760437 -0.997104 0
    outer loop
      vertex 3.72086 14.9603 0.599999
      vertex 4.19159 14.9962 0.799999
      vertex 3.72086 14.9603 0.799999
    endloop
  endfacet
  facet normal 0.0760437 -0.997104 0
    outer loop
      vertex 4.19159 14.9962 0.799999
      vertex 3.72086 14.9603 0.599999
      vertex 4.19159 14.9962 0.599999
    endloop
  endfacet
  facet normal 0 -1 0
    outer loop
      vertex 2.23033 14.9603 0.599999
      vertex 3.72086 14.9603 0.799999
      vertex 2.23033 14.9603 0.799999
    endloop
  endfacet
  facet normal 0 -1 -0
    outer loop
      vertex 3.72086 14.9603 0.799999
      vertex 2.23033 14.9603 0.599999
      vertex 3.72086 14.9603 0.599999
    endloop
  endfacet
endsolid OpenSCAD_Model
